<?xml version="1.0" standalone="no"?>
<!DOCTYPE svg PUBLIC "-//W3C//DTD SVG 20010904//EN"
 "http://www.w3.org/TR/2001/REC-SVG-20010904/DTD/svg10.dtd">
<svg version="1.0" xmlns="http://www.w3.org/2000/svg"
 width="259.000000pt" height="194.000000pt" viewBox="0 0 259.000000 194.000000"
 preserveAspectRatio="xMidYMid meet">

<g transform="translate(0.000000,194.000000) scale(0.100000,-0.100000)"
fill="#000000" stroke="none">
<path d="M120 1822 c-6 -2 -10 -126 -9 -345 0 -269 3 -338 12 -323 42 66 123
158 161 183 25 17 43 33 39 37 -3 3 3 6 13 6 11 0 26 6 33 13 11 10 13 10 7 0
-4 -7 -2 -13 5 -13 7 0 9 8 5 23 -18 66 -18 67 -2 67 10 0 23 -15 32 -37 8
-21 22 -55 32 -75 l17 -37 45 21 c64 30 206 36 285 13 142 -41 263 -130 286
-211 8 -26 20 -49 27 -51 6 -3 12 -16 12 -29 0 -13 5 -35 12 -49 9 -19 9 -28
0 -37 -17 -17 -15 -33 2 -19 18 15 25 -25 25 -147 0 -110 -19 -168 -82 -252
-52 -70 -78 -92 -154 -135 -67 -38 -68 -40 -53 -79 l10 -26 190 0 c174 0 190
1 191 18 1 9 0 50 -1 90 l-2 72 31 0 31 0 0 245 0 245 25 6 c14 3 41 3 60 0
l35 -7 3 -247 2 -247 3 257 2 257 33 5 c28 4 60 3 105 -2 9 -2 13 -62 14 -259
l3 -258 2 248 3 247 60 0 60 0 0 -245 0 -244 63 -4 c52 -3 48 -3 -27 -5 -49
-1 -87 -5 -83 -8 3 -3 30 -6 59 -5 29 0 76 -2 104 -5 l52 -6 6 -62 c3 -33 7
-67 8 -73 1 -8 17 -13 40 -13 36 0 38 2 38 31 0 24 3 30 16 25 9 -3 24 -6 35
-6 10 0 19 -5 19 -11 0 -7 -10 -9 -27 -5 -23 5 -25 4 -10 -4 15 -10 17 -27 17
-130 0 -89 3 -120 13 -121 6 0 3 -4 -8 -8 -17 -7 -14 -10 22 -21 47 -14 162
-2 189 21 10 9 14 38 14 120 l0 109 100 0 100 0 0 750 c0 708 -1 750 -17 750
-468 3 -2326 4 -2333 2z m783 -138 c36 -6 37 -8 37 -50 0 -51 -14 -57 -45 -18
-18 23 -24 25 -42 15 -45 -23 -54 -127 -15 -172 20 -23 48 -25 56 -3 11 28 6
54 -9 54 -9 0 -15 9 -15 25 0 22 4 25 39 25 51 0 71 -8 71 -29 1 -9 9 6 18 34
13 37 24 52 44 59 52 18 99 -38 84 -99 -5 -21 -12 -25 -45 -25 -40 0 -51 -11
-43 -42 6 -26 27 -22 50 10 16 21 23 24 33 15 11 -11 7 -46 -9 -70 -4 -7 -22
-16 -39 -19 -37 -7 -62 16 -79 74 -7 25 -17 38 -32 40 -19 3 -20 0 -15 -52 6
-62 16 -56 -81 -58 -61 -2 -96 52 -96 151 0 49 5 65 30 99 31 43 39 46 103 36z
m1124 -24 c4 -25 10 -30 33 -30 43 0 75 -49 78 -120 4 -68 12 -98 28 -104 8
-3 14 -12 14 -21 0 -20 17 -19 28 3 11 22 10 38 -5 82 -6 19 -14 52 -18 73 -4
23 -11 37 -20 37 -26 0 -17 39 9 46 47 11 61 2 62 -41 0 -22 2 -51 3 -65 2
-23 4 -22 16 10 7 19 10 47 8 61 -4 21 0 28 16 34 49 15 82 -23 44 -51 -10 -7
-18 -16 -18 -21 -2 -32 -32 -127 -53 -170 -24 -49 -29 -53 -62 -53 -39 0 -60
14 -60 41 0 13 -10 19 -32 21 -25 2 -34 8 -36 26 -2 12 1 22 7 22 13 0 15 109
2 129 -5 8 -16 11 -25 8 -12 -5 -16 -21 -16 -69 0 -35 4 -70 10 -78 12 -19 -6
-40 -36 -40 -28 0 -53 38 -33 50 15 10 14 179 -1 194 -14 14 -12 43 3 49 31
13 48 6 54 -23z m-561 -36 c4 -17 10 -22 18 -16 15 12 80 22 104 15 11 -2 25
-17 32 -31 l12 -27 9 23 c5 12 21 27 36 33 67 25 110 -26 99 -119 -4 -33 -2
-59 4 -67 6 -7 8 -20 4 -29 -7 -18 -30 -21 -40 -5 -4 8 -9 8 -17 0 -17 -17
-41 -13 -71 10 -29 23 -35 63 -12 94 10 14 11 22 2 31 -9 10 -14 8 -26 -7 -24
-30 -54 -15 -46 22 6 32 -17 42 -28 13 -11 -28 -7 -122 5 -126 7 -2 9 -13 5
-26 -5 -16 -15 -22 -35 -22 -35 0 -60 25 -43 42 14 14 16 126 4 146 -15 23
-42 2 -42 -32 -1 -46 -22 -69 -59 -64 -17 3 -31 1 -31 -4 0 -4 17 -8 38 -8 47
0 75 -27 75 -70 0 -68 -87 -97 -139 -45 -22 22 -24 31 -19 72 3 27 9 75 13
108 6 53 10 61 37 75 16 8 34 20 40 26 26 30 62 23 71 -12z m-183 -26 c23 -27
23 -129 0 -168 -19 -32 -64 -46 -93 -28 -70 44 -64 193 10 221 24 9 64 -2 83
-25z m633 24 c5 -4 17 -19 27 -34 44 -70 -4 -208 -69 -195 -13 2 -24 0 -24 -4
0 -5 5 -9 10 -9 15 0 12 -37 -3 -43 -7 -3 -26 -3 -41 0 -20 4 -25 10 -20 22
10 24 4 214 -7 227 -20 25 1 40 59 41 32 1 62 -1 68 -5z m222 -894 c5 -13 6
-87 3 -166 -3 -78 -3 -142 0 -142 4 0 12 21 19 48 34 132 65 202 91 202 4 0
10 -14 14 -31 5 -24 2 -36 -14 -53 -12 -12 -21 -30 -21 -40 0 -11 -4 -14 -12
-10 -8 5 -9 2 -5 -10 6 -16 -6 -54 -32 -106 -5 -9 -26 -16 -54 -18 -40 -3 -46
0 -52 20 -4 12 -14 28 -21 36 -11 10 -11 18 -2 35 10 20 10 21 -6 8 -9 -8 -19
-11 -23 -7 -3 3 -1 6 5 6 16 0 15 19 -2 53 -11 20 -12 27 -3 28 7 0 3 4 -9 9
-28 11 -40 78 -19 100 25 24 47 0 63 -68 7 -34 17 -62 21 -62 4 0 5 27 3 59
-7 96 33 174 56 109z m242 -62 c0 -8 -34 -86 -72 -169 -42 -88 -64 -108 -102
-94 -12 5 -8 20 20 79 19 40 39 81 45 92 6 10 20 35 31 55 32 57 38 62 59 50
10 -5 19 -11 19 -13z m-412 -91 c4 -5 16 -29 26 -53 11 -23 30 -54 43 -69 25
-26 24 -53 -1 -53 -41 0 -65 22 -105 96 -49 90 -60 132 -40 145 13 8 42 -17
77 -66z"/>
<path d="M1046 1565 c-4 -10 1 -15 14 -15 11 0 20 7 20 15 0 8 -6 15 -14 15
-8 0 -16 -7 -20 -15z"/>
<path d="M1688 1556 c-4 -19 0 -25 19 -29 18 -3 23 0 23 15 0 11 -4 16 -10 13
-6 -3 -7 1 -4 9 4 10 1 16 -9 16 -8 0 -17 -11 -19 -24z"/>
<path d="M1372 1549 c1 -13 8 -23 13 -21 15 3 12 35 -3 40 -9 3 -13 -3 -10
-19z"/>
<path d="M1691 1471 c-7 -5 -10 -14 -6 -20 5 -9 10 -9 21 0 26 22 14 38 -15
20z"/>
<path d="M1363 1409 c-15 -15 -5 -39 17 -39 21 0 44 25 35 40 -8 13 -38 13
-52 -1z"/>
<path d="M1202 1560 c-24 -39 -7 -120 26 -120 16 0 32 34 32 70 0 61 -33 90
-58 50z"/>
<path d="M1862 1568 c-19 -19 -16 -117 4 -125 37 -14 60 80 30 120 -16 20 -18
21 -34 5z"/>
<path d="M350 1350 c-14 -11 -31 -20 -38 -20 -7 0 -15 -7 -18 -15 -4 -8 -11
-15 -16 -15 -27 0 -136 -139 -158 -202 -8 -20 -17 -35 -22 -32 -4 3 -8 1 -8
-5 0 -5 5 -13 10 -16 13 -8 13 -365 0 -399 -7 -18 -6 -26 1 -26 7 0 9 -9 6
-21 -4 -14 -1 -19 7 -16 7 3 19 -11 28 -32 9 -20 26 -46 37 -58 12 -12 21 -27
21 -33 0 -6 5 -8 10 -5 5 3 10 -2 10 -12 0 -15 2 -16 11 -3 9 13 10 12 5 -2
-3 -10 -1 -18 5 -18 10 0 62 -34 87 -58 7 -6 20 -12 28 -12 8 0 14 -4 14 -10
0 -5 8 -10 18 -10 11 0 13 -3 5 -8 -6 -4 91 -6 215 -4 125 2 228 4 229 6 2 2
-1 16 -7 31 -8 20 -15 25 -28 20 -33 -14 -173 -17 -235 -5 -110 21 -266 115
-238 143 6 6 11 24 11 39 0 15 5 28 10 28 6 0 10 13 10 28 0 16 7 42 15 58 15
32 10 78 -9 71 -6 -3 -19 2 -28 11 -12 10 -18 11 -18 4 0 -7 -7 -12 -15 -12
-11 0 -15 -11 -15 -40 0 -28 4 -40 14 -40 18 0 30 33 21 60 -3 11 -2 20 4 20
13 0 18 -24 19 -90 0 -36 -2 -48 -7 -35 -7 18 -8 17 -14 -7 -4 -15 -15 -29
-25 -31 -14 -4 -14 -6 5 -12 13 -4 23 -14 23 -21 0 -23 -26 -16 -38 10 -6 13
-19 27 -29 30 -33 11 -70 103 -72 181 0 27 -5 51 -11 53 -19 7 -11 128 13 204
24 75 70 158 87 158 6 0 10 6 10 14 0 8 13 17 29 21 19 4 28 11 25 19 -5 13
56 66 75 66 14 0 14 6 -4 40 -18 35 -31 37 -65 10z m20 -680 c0 -5 -5 -10 -11
-10 -5 0 -7 5 -4 10 3 6 8 10 11 10 2 0 4 -4 4 -10z"/>
<path d="M490 1309 c-12 -8 -11 -9 5 -5 11 3 36 1 55 -4 l35 -10 -39 5 c-39 4
-115 -24 -88 -33 8 -2 19 1 25 7 6 6 30 11 53 11 22 0 56 5 75 12 l34 12 -45
7 c-65 11 -93 10 -110 -2z"/>
<path d="M776 1196 c-27 -12 -27 -13 -7 -19 11 -3 21 -2 21 2 0 5 10 13 23 19
31 15 -2 13 -37 -2z"/>
<path d="M849 1201 c7 -5 11 -13 7 -19 -3 -5 4 -12 16 -15 27 -8 38 1 18 13
-8 6 -10 10 -5 10 16 0 -18 20 -35 20 -12 0 -13 -2 -1 -9z"/>
<path d="M921 1155 l-25 -14 30 -28 c17 -15 33 -36 37 -45 4 -12 17 -18 37
-18 29 0 40 -13 21 -24 -4 -3 -6 -17 -3 -31 2 -14 -3 -36 -12 -50 -22 -33 -20
-56 4 -62 11 -3 20 -9 20 -14 0 -5 9 -9 20 -9 28 0 49 -39 51 -94 l2 -48 16
26 c9 14 19 26 23 26 5 0 8 4 8 10 0 5 -7 7 -15 4 -9 -4 -15 0 -15 9 0 8 6 18
13 20 7 3 5 6 -5 6 -10 1 -18 7 -18 14 0 6 -15 22 -33 35 -18 12 -25 22 -17
22 9 0 26 -7 38 -16 20 -14 22 -14 22 0 0 9 -11 18 -25 21 -14 3 -36 7 -50 10
-14 3 -25 1 -25 -5 0 -5 -4 -10 -10 -10 -9 0 7 47 20 60 3 3 6 30 6 60 1 30 9
74 17 98 14 40 14 43 -4 53 -12 6 -19 6 -19 0 0 -5 6 -12 13 -14 6 -3 -5 -6
-25 -6 -29 -1 -36 2 -32 14 8 19 -30 19 -65 0z"/>
<path d="M831 1139 c-16 -6 -21 -13 -15 -19 7 -7 20 -6 37 2 48 23 28 37 -22
17z"/>
<path d="M708 1123 c-16 -2 -28 -11 -28 -18 0 -17 -36 -38 -50 -30 -6 3 -10
-1 -10 -9 0 -24 22 -19 62 14 29 24 37 27 42 15 3 -8 11 -15 18 -14 10 0 10 2
1 6 -21 8 -14 25 7 18 15 -5 18 -3 14 9 -3 9 -11 15 -18 15 -6 -1 -23 -4 -38
-6z"/>
<path d="M785 1111 c3 -5 1 -12 -5 -16 -6 -4 -5 -12 5 -21 8 -9 15 -22 15 -30
0 -20 16 -17 40 8 22 24 26 38 10 38 -5 0 -10 -4 -10 -10 0 -5 -9 -10 -19 -10
-11 0 -23 5 -26 10 -3 6 -2 10 4 10 6 0 8 7 5 15 -4 8 -10 15 -16 15 -5 0 -7
-4 -3 -9z"/>
<path d="M865 1110 c-3 -5 -1 -10 4 -10 6 0 11 5 11 10 0 6 -2 10 -4 10 -3 0
-8 -4 -11 -10z"/>
<path d="M934 1044 c3 -9 6 -22 6 -30 0 -9 4 -13 9 -10 5 4 12 0 14 -6 3 -7 6
-3 6 10 1 12 -3 22 -9 22 -5 0 -10 7 -10 15 0 8 -5 15 -11 15 -6 0 -8 -7 -5
-16z"/>
<path d="M68 1010 c-7 -24 -3 -38 8 -28 3 4 4 17 2 30 l-3 23 -7 -25z"/>
<path d="M602 1000 c-7 -11 -8 -20 -3 -20 5 0 11 5 13 10 2 6 21 13 43 15 l40
5 -35 -16 c-41 -17 -63 -54 -44 -71 6 -7 15 -9 18 -6 3 4 6 1 6 -5 0 -7 6 -12
14 -12 10 0 16 14 18 43 2 35 7 43 26 45 19 3 20 5 8 18 -22 22 -89 18 -104
-6z"/>
<path d="M850 1010 c0 -5 7 -10 16 -10 8 0 12 5 9 10 -3 6 -10 10 -16 10 -5 0
-9 -4 -9 -10z"/>
<path d="M897 975 c4 -28 2 -35 -11 -35 -20 0 -20 -7 -1 -26 8 -9 15 -33 15
-55 0 -22 4 -49 10 -59 9 -17 12 -17 40 -4 30 16 42 55 20 69 -6 4 -7 -1 -3
-11 4 -12 3 -15 -5 -10 -8 4 -16 -3 -22 -20 -6 -15 -12 -25 -15 -23 -9 10 -12
180 -3 185 6 4 5 10 -3 15 -24 15 -28 10 -22 -26z"/>
<path d="M720 970 c0 -6 7 -13 15 -17 24 -9 27 1 5 15 -13 8 -20 8 -20 2z"/>
<path d="M941 959 c8 -15 8 -24 0 -32 -14 -14 -14 -27 -1 -27 6 0 10 7 10 15
0 9 6 12 18 8 14 -5 15 -3 5 8 -15 16 -17 33 -3 24 6 -3 10 -1 10 5 0 7 -7 10
-15 6 -8 -3 -15 -1 -15 4 0 6 -5 10 -10 10 -7 0 -7 -7 1 -21z"/>
<path d="M781 951 c-12 -8 -12 -12 -2 -25 19 -22 51 -20 51 3 0 10 -7 22 -16
25 -19 7 -16 8 -33 -3z"/>
<path d="M544 939 c-12 -19 -9 -113 4 -136 10 -18 22 -23 50 -23 72 0 76 -9
69 -161 -3 -79 -2 -126 3 -114 8 18 9 18 9 2 2 -36 21 -5 21 34 0 21 5 39 10
39 11 0 12 67 1 115 -6 28 -7 29 -19 10 -10 -17 -12 -10 -9 42 3 53 2 59 -10
47 -17 -17 -33 -18 -33 -3 0 7 -15 10 -40 7 -45 -4 -43 -9 -42 90 0 63 -2 70
-14 51z m166 -303 c0 -26 -6 -18 -14 19 -5 22 -4 26 4 15 5 -8 10 -24 10 -34z
m-25 -51 c-3 -26 -8 -45 -11 -43 -2 3 -1 26 2 52 4 25 9 44 12 42 2 -3 1 -26
-3 -51z"/>
<path d="M49 875 c-4 -77 7 -164 23 -180 8 -7 8 -4 3 10 -5 11 -11 70 -15 130
-6 107 -6 108 -11 40z"/>
<path d="M720 923 c0 -13 8 -18 31 -19 31 -1 29 2 -13 27 -14 8 -18 6 -18 -8z"/>
<path d="M841 890 c-3 -32 -4 -33 -10 -10 -7 24 -8 24 -20 -12 -12 -36 -7
-103 9 -113 4 -3 10 5 14 18 3 12 1 24 -4 25 -6 2 -10 16 -10 30 1 26 1 26 15
-7 8 -18 12 -44 9 -57 -3 -13 -2 -24 4 -24 11 0 22 48 21 89 0 23 -1 24 -9 6
-6 -15 -9 -6 -12 35 -3 41 -5 46 -7 20z"/>
<path d="M180 873 c0 -10 6 -14 20 -10 13 3 20 0 20 -10 0 -8 -5 -11 -12 -7
-8 5 -9 0 -5 -17 4 -13 7 -33 7 -44 0 -18 2 -17 17 5 12 17 13 25 5 28 -7 2
-9 8 -6 14 3 5 13 -1 22 -13 11 -16 12 -24 4 -27 -7 -2 -12 -15 -12 -28 0 -18
5 -24 21 -24 19 0 21 4 16 35 -6 36 8 59 16 28 4 -14 5 -14 6 -2 0 8 -14 29
-31 46 -38 36 -88 51 -88 26z m90 -43 c0 -5 -4 -10 -10 -10 -5 0 -10 5 -10 10
0 6 5 10 10 10 6 0 10 -4 10 -10z"/>
<path d="M991 834 c0 -11 3 -14 6 -6 3 7 2 16 -1 19 -3 4 -6 -2 -5 -13z"/>
<path d="M600 816 c0 -9 50 -12 62 -5 8 6 -1 9 -24 9 -21 0 -38 -2 -38 -4z"/>
<path d="M700 783 c0 -5 5 -15 10 -23 8 -12 10 -11 10 8 0 12 -4 22 -10 22 -5
0 -10 -3 -10 -7z"/>
<path d="M870 758 c0 -9 5 -20 10 -23 13 -8 13 5 0 25 -8 13 -10 13 -10 -2z"/>
<path d="M804 723 c-2 -26 -2 -25 20 -17 21 8 20 31 -1 36 -13 4 -18 -2 -19
-19z"/>
<path d="M200 731 c0 -5 6 -14 14 -21 8 -6 16 -21 18 -32 2 -12 9 -23 16 -24
7 -1 8 0 2 3 -5 2 -10 10 -10 17 0 18 -24 66 -32 66 -5 0 -8 -4 -8 -9z"/>
<path d="M893 725 c-9 -25 4 -29 17 -6 7 15 7 21 0 21 -6 0 -13 -7 -17 -15z"/>
<path d="M860 720 c0 -5 5 -10 10 -10 6 0 10 5 10 10 0 6 -4 10 -10 10 -5 0
-10 -4 -10 -10z"/>
<path d="M808 672 c-22 -14 -28 -24 -28 -54 0 -20 3 -38 8 -41 4 -2 1 -2 -6 0
-8 2 -16 -6 -19 -17 -3 -11 -12 -20 -19 -20 -17 0 -18 26 -1 34 6 3 3 5 -8 3
-17 -2 -20 -10 -21 -48 0 -25 -4 -51 -8 -57 -12 -19 3 -14 27 9 17 17 18 21 5
16 -14 -5 -18 -1 -18 16 0 17 2 19 10 7 7 -12 13 -11 37 10 43 38 44 42 38 90
-2 25 -2 40 3 33 5 -8 15 -4 35 13 22 19 24 24 10 23 -10 0 -30 -8 -45 -17z"/>
<path d="M307 637 c-3 -8 -1 -20 4 -28 6 -10 9 -7 9 14 0 29 -5 35 -13 14z"/>
<path d="M260 615 c0 -18 4 -23 15 -19 8 4 15 15 15 25 0 10 -7 19 -15 19 -9
0 -15 -9 -15 -25z"/>
<path d="M110 440 l0 -120 115 0 c63 0 115 3 115 8 0 4 -21 20 -48 37 -61 39
-128 108 -156 163 -9 17 -19 32 -21 32 -3 0 -5 -54 -5 -120z"/>
<path d="M820 510 c-6 -11 -8 -20 -6 -20 3 0 10 9 16 20 6 11 8 20 6 20 -3 0
-10 -9 -16 -20z"/>
<path d="M660 468 c0 -17 20 -47 20 -31 0 6 3 18 6 27 4 11 1 16 -10 16 -9 0
-16 -6 -16 -12z"/>
<path d="M428 298 c5 -5 16 -8 23 -6 8 3 3 7 -10 11 -17 4 -21 3 -13 -5z"/>
<path d="M820 300 l-25 -8 28 -1 c15 -1 27 4 27 9 0 6 -1 10 -2 9 -2 -1 -14
-5 -28 -9z"/>
<path d="M475 281 c-3 -6 0 -8 8 -5 8 3 18 1 22 -5 3 -6 16 -11 28 -11 17 1
19 2 7 9 -29 17 -58 22 -65 12z"/>
<path d="M560 259 c0 -8 16 -10 53 -6 l52 5 -3 -64 c-3 -44 -8 -64 -17 -64
-22 0 -190 -51 -199 -61 -6 -5 77 -9 222 -9 128 0 232 4 232 8 0 4 -47 21
-105 37 -104 28 -105 29 -106 59 0 17 -2 45 -3 63 -3 31 -2 32 30 31 19 -1 37
1 40 4 3 3 -40 6 -95 7 -71 1 -101 -2 -101 -10z"/>
</g>
</svg>
