<?xml version="1.0" standalone="no"?>
<!DOCTYPE svg PUBLIC "-//W3C//DTD SVG 20010904//EN"
 "http://www.w3.org/TR/2001/REC-SVG-20010904/DTD/svg10.dtd">
<svg version="1.0" xmlns="http://www.w3.org/2000/svg"
 width="800.000000pt" height="564.000000pt" viewBox="0 0 800.000000 564.000000"
 preserveAspectRatio="xMidYMid meet">

<g transform="translate(0.000000,564.000000) scale(0.100000,-0.100000)"
fill="#000000" stroke="none">
<path d="M1830 5598 c0 -7 20 -66 44 -130 24 -65 41 -118 37 -118 -4 0 -58 36
-120 80 -63 44 -118 80 -122 80 -5 0 -9 -26 -9 -57 0 -32 -3 -88 -6 -125 l-7
-67 -72 64 c-40 36 -79 65 -87 65 -10 0 -20 -33 -37 -120 -13 -66 -27 -118
-31 -115 -5 3 -34 43 -65 90 -55 83 -76 102 -74 68 1 -24 141 -229 154 -226 6
1 21 58 35 127 14 69 30 126 35 126 6 0 42 -31 80 -70 40 -41 73 -66 78 -61 5
5 14 64 21 130 l11 122 128 -91 c70 -50 132 -88 137 -85 8 5 -50 185 -93 288
-15 36 -37 50 -37 25z"/>
<path d="M5902 5570 c2 -6 70 -34 151 -60 82 -27 213 -80 291 -118 136 -66
176 -92 142 -92 -24 0 -163 -76 -225 -122 -106 -80 -231 -222 -212 -241 6 -6
12 -9 14 -6 2 2 24 32 50 65 98 130 212 211 411 293 39 16 27 27 -101 94 -133
68 -206 99 -348 147 -138 47 -179 56 -173 40z"/>
<path d="M6619 5529 c-16 -32 4 -47 25 -18 20 29 20 39 1 39 -8 0 -19 -9 -26
-21z"/>
<path d="M6701 5528 c-5 -13 -20 -52 -35 -87 -31 -76 -30 -73 -10 -69 9 2 30
37 50 87 19 47 34 86 34 88 0 2 -7 3 -15 3 -9 0 -19 -10 -24 -22z"/>
<path d="M7370 5518 c-69 -17 -142 -35 -162 -40 -41 -9 -52 -28 -17 -28 21 0
217 43 282 62 20 6 37 17 37 25 0 16 13 17 -140 -19z"/>
<path d="M2225 5530 c-3 -5 -1 -35 4 -67 6 -31 8 -59 5 -62 -3 -3 -29 -15 -57
-26 -30 -12 -53 -29 -55 -38 -3 -14 6 -17 58 -17 l61 0 -7 -50 c-5 -41 -4 -50
8 -50 9 0 21 7 28 15 7 9 26 25 42 36 l29 21 74 -35 c47 -23 77 -32 81 -25 4
5 -17 33 -45 62 l-52 52 60 50 c92 76 81 90 -44 54 -38 -11 -73 -20 -77 -20
-4 0 -26 25 -49 55 -42 55 -53 63 -64 45z m145 -124 c66 20 68 18 27 -24 -35
-36 -36 -39 -19 -56 16 -17 15 -17 -18 -11 -28 5 -42 2 -63 -15 l-27 -21 6 29
c6 28 3 30 -32 39 l-39 10 34 7 c33 8 33 8 27 55 l-5 46 32 -37 32 -36 45 14z"/>
<path d="M3131 5514 c-12 -15 -21 -34 -21 -43 0 -19 -27 -61 -40 -61 -5 0 -16
23 -25 50 -30 91 -90 75 -135 -36 -12 -30 -27 -54 -34 -54 -6 0 -22 24 -36 53
-20 42 -30 53 -53 55 -49 6 -93 -50 -99 -124 -2 -29 1 -39 12 -39 10 0 17 14
20 41 7 51 36 96 58 92 9 -2 26 -22 37 -46 46 -94 77 -90 128 16 18 38 38 67
47 67 9 0 20 -17 28 -40 17 -54 34 -69 66 -61 25 6 33 17 65 99 6 15 17 27 26
27 8 0 17 -12 21 -27 18 -78 65 -95 109 -40 25 31 26 31 40 13 13 -18 18 -18
54 -6 35 11 78 11 121 -1 8 -2 15 3 15 11 0 24 -65 40 -114 29 -28 -6 -48 -6
-62 2 -29 15 -63 4 -79 -26 -18 -33 -38 -32 -46 3 -17 73 -65 94 -103 46z"/>
<path d="M130 5493 c0 -26 28 -125 37 -134 5 -5 35 16 68 46 67 61 67 64 -19
90 -65 20 -86 19 -86 -2z m88 -28 c29 -8 28 -17 -7 -43 l-30 -22 -6 23 c-19
67 -25 61 43 42z"/>
<path d="M748 5443 c-23 -32 -44 -60 -45 -62 -2 -3 -24 5 -48 17 -25 12 -51
22 -58 22 -7 0 -28 -31 -47 -70 -19 -38 -39 -70 -45 -70 -6 0 -35 7 -64 16
-29 8 -56 12 -59 9 -4 -4 -14 -38 -22 -77 l-15 -70 -63 -23 c-35 -13 -66 -26
-69 -29 -3 -3 6 -32 21 -65 31 -70 32 -76 6 -137 -29 -67 -23 -74 58 -74 66 0
69 -1 107 -40 21 -22 42 -40 46 -40 3 0 29 18 57 40 l51 41 63 -26 63 -26 20
28 c11 15 31 41 45 56 l25 28 78 -21 c42 -12 81 -19 85 -16 5 3 17 33 27 67
l19 61 74 -7 74 -7 -7 81 -7 81 42 50 c24 29 39 55 34 59 -5 5 -33 17 -62 27
-54 19 -54 19 -48 54 19 108 20 123 5 118 -8 -3 -50 -16 -93 -28 l-79 -22 -56
56 c-31 31 -60 56 -63 56 -4 0 -26 -26 -50 -57z m109 -35 l53 -52 76 22 c42
13 78 22 79 20 2 -2 -2 -29 -7 -61 -6 -33 -6 -62 -2 -67 5 -5 30 -17 56 -27
l47 -18 -35 -45 c-35 -44 -36 -46 -29 -113 l6 -67 -68 6 -69 7 -19 -62 c-10
-34 -21 -64 -25 -66 -4 -2 -41 5 -83 17 l-77 21 -22 -29 c-13 -16 -33 -40 -44
-53 l-21 -25 -58 22 -58 23 -39 -28 c-22 -16 -45 -32 -53 -37 -9 -7 -25 1 -54
27 -37 33 -47 37 -96 37 -30 0 -55 3 -55 8 0 4 8 28 17 54 16 46 16 49 -5 101
-12 29 -22 57 -22 63 0 6 27 19 60 29 l59 18 11 56 c19 97 15 91 63 77 23 -7
52 -16 64 -20 21 -7 26 0 58 69 l34 76 38 -17 c72 -31 75 -30 117 30 21 31 41
56 44 56 4 0 30 -23 59 -52z"/>
<path d="M716 5261 c-31 -58 -12 -155 37 -197 34 -29 58 -25 100 14 48 46 26
60 -25 17 -36 -31 -46 -29 -75 15 -36 51 -30 156 8 148 8 -2 14 4 14 12 0 8
-10 16 -22 18 -16 2 -26 -5 -37 -27z"/>
<path d="M513 5188 c-34 -38 -55 -77 -48 -88 5 -8 10 -8 20 0 10 8 15 7 19 -7
2 -10 12 -44 21 -76 10 -35 21 -56 28 -54 7 3 11 9 10 15 -1 6 -12 47 -23 92
-17 64 -19 84 -10 96 30 35 52 5 29 -38 -15 -27 7 -52 22 -25 14 24 36 21 55
-8 14 -21 14 -30 4 -55 -7 -17 -24 -39 -38 -50 -22 -18 -23 -20 -7 -27 13 -4
26 3 47 25 22 25 28 42 28 77 0 47 -25 85 -55 85 -8 0 -15 6 -15 14 0 20 -28
46 -49 46 -10 0 -27 -10 -38 -22z"/>
<path d="M5580 5480 c-24 -24 -26 -57 -4 -88 22 -32 79 -27 107 9 47 64 -46
136 -103 79z m79 -24 c9 -11 10 -20 1 -36 -21 -39 -83 -7 -67 34 8 20 50 21
66 2z"/>
<path d="M7406 5472 c-3 -6 7 -33 24 -60 l30 -49 -20 -58 c-13 -39 -17 -62
-10 -69 6 -6 15 3 25 27 8 20 15 41 15 47 0 19 16 10 34 -21 12 -21 21 -28 28
-21 7 7 3 25 -15 55 l-26 43 30 52 c33 59 34 62 14 62 -8 0 -24 -19 -36 -42
l-22 -43 -16 25 c-33 49 -48 64 -55 52z"/>
<path d="M4088 5427 l-32 -43 -241 -33 c-312 -43 -843 -131 -1016 -169 -152
-34 -209 -54 -209 -76 0 -35 144 -29 415 19 77 14 334 56 570 95 237 38 443
72 459 75 21 4 38 -2 65 -23 20 -16 41 -32 48 -36 13 -7 471 128 487 144 5 5
8 12 5 14 -3 4 -489 76 -510 76 -5 0 -23 -19 -41 -43z m242 -13 c220 -30 226
-32 180 -49 -69 -24 -90 -27 -84 -10 8 21 -7 19 -136 -11 -77 -18 -110 -30
-110 -40 0 -16 -2 -16 134 18 127 31 109 15 -28 -25 l-127 -38 -41 33 c-40 31
-41 32 -17 39 13 4 50 10 82 14 40 4 57 11 57 21 0 17 -6 17 -87 3 -35 -6 -67
-9 -70 -6 -6 6 45 77 56 77 3 0 89 -12 191 -26z m-467 -98 c7 -18 -1 -26 -25
-26 -18 0 -25 20 -11 33 11 12 31 8 36 -7z m-68 -16 c0 -9 -11 -16 -27 -18
-30 -4 -36 6 -16 26 16 16 43 11 43 -8z m-75 3 c-1 -20 -20 -34 -53 -40 -33
-5 -37 -3 -37 15 0 15 8 22 28 25 48 7 62 7 62 0z m-120 -33 c0 -15 -7 -20
-25 -20 -24 0 -34 18 -18 33 15 15 43 7 43 -13z m-70 -9 c0 -18 -25 -31 -62
-31 -27 0 -23 38 5 43 47 9 57 7 57 -12z m-110 -21 c0 -11 -4 -20 -9 -20 -5 0
-22 -3 -38 -6 -25 -5 -31 -2 -36 15 -5 21 6 28 56 30 21 1 27 -4 27 -19z
m-110 -20 c0 -14 -7 -20 -24 -20 -13 0 -31 -3 -40 -6 -11 -4 -16 0 -16 13 0
27 8 33 47 33 26 0 33 -4 33 -20z m-112 -12 c-2 -19 -10 -24 -46 -26 -38 -3
-43 -1 -40 15 3 16 16 21 81 32 5 0 7 -9 5 -21z m-118 -23 c0 -26 -64 -35 -74
-9 -9 23 -9 22 27 26 38 4 47 1 47 -17z m-107 -36 c-28 -11 -81 -10 -88 2 -9
14 -2 20 37 29 24 5 38 2 51 -9 18 -15 18 -16 0 -22z m-118 0 c9 -14 4 -18
-25 -21 -16 -2 -25 3 -28 15 -3 12 3 17 22 17 14 0 28 -5 31 -11z m-93 -30
c-9 -4 -20 -1 -24 5 -4 6 0 14 10 17 9 4 20 1 24 -5 4 -6 0 -14 -10 -17z m-52
1 c0 -5 -12 -10 -27 -10 -22 0 -25 2 -13 10 20 13 40 13 40 0z"/>
<path d="M6735 5439 c-12 -54 17 -51 30 4 6 20 4 27 -8 27 -9 0 -18 -13 -22
-31z"/>
<path d="M7346 5448 c-3 -7 -6 -61 -8 -120 -3 -76 0 -108 8 -108 15 0 24 56
24 152 0 69 -13 110 -24 76z"/>
<path d="M5255 5425 c-52 -51 -16 -138 57 -138 39 0 78 41 78 84 0 40 -39 79
-80 79 -19 0 -40 -9 -55 -25z m89 -21 c43 -42 -14 -112 -63 -78 -23 17 -28 63
-9 82 17 17 54 15 72 -4z"/>
<path d="M4819 5420 c-44 -23 -106 -91 -115 -125 -10 -41 2 -115 23 -144 32
-43 82 -71 126 -71 32 0 46 7 77 38 49 48 60 98 33 143 -24 43 -65 57 -99 34
-16 -10 -24 -24 -22 -37 4 -30 21 -32 33 -6 7 15 17 22 30 20 85 -15 31 -162
-60 -162 -51 0 -104 51 -112 107 -7 54 1 84 33 123 78 92 211 91 261 -2 24
-46 24 -160 0 -210 -70 -140 -241 -163 -349 -46 -40 44 -62 44 -38 1 41 -71
155 -119 246 -102 102 19 181 113 191 226 7 83 -11 139 -62 190 -40 41 -45 43
-101 43 -38 -1 -72 -8 -95 -20z"/>
<path d="M7243 5389 l-16 -42 -19 27 c-20 27 -38 34 -38 15 0 -6 10 -24 21
-41 l21 -29 -21 -58 c-11 -32 -21 -63 -21 -70 0 -21 21 -11 31 17 6 15 15 38
20 51 l10 24 25 -36 c24 -36 44 -48 44 -26 0 5 -11 27 -25 47 -28 41 -31 66
-10 102 8 14 14 33 15 43 0 31 -20 18 -37 -24z"/>
<path d="M6040 5350 c-193 -22 -391 -85 -506 -162 -86 -58 -249 -213 -239
-228 4 -6 45 26 99 78 51 48 121 107 155 129 119 80 342 147 534 159 64 5 96
11 94 18 -5 14 -44 16 -137 6z"/>
<path d="M7720 5328 c-28 -31 -26 -83 5 -113 33 -34 78 -33 110 1 30 33 32 73
4 108 -27 34 -88 37 -119 4z m103 -29 c5 -9 7 -28 3 -42 -7 -30 -49 -46 -75
-30 -20 13 -26 60 -10 79 16 19 69 14 82 -7z"/>
<path d="M6860 5305 c-13 -13 -31 -27 -42 -31 -21 -6 -23 -21 -5 -43 8 -9 31
-56 53 -105 21 -49 45 -91 52 -93 7 -3 23 3 35 14 12 11 35 27 50 37 15 9 25
21 22 26 -7 11 -31 3 -67 -22 -14 -10 -28 -18 -31 -18 -2 0 -12 19 -23 42 -14
31 -15 43 -6 46 22 7 14 35 -8 29 -16 -4 -24 2 -35 29 -14 35 -14 35 20 66 19
16 35 34 35 39 0 17 -27 9 -50 -16z"/>
<path d="M6721 5217 c-6 -16 -11 -40 -11 -54 0 -20 -4 -24 -17 -18 -58 24 -73
28 -78 23 -8 -8 103 -228 115 -228 19 0 10 31 -30 104 -22 40 -40 76 -40 80 0
3 14 -1 30 -9 28 -15 31 -14 36 2 19 59 19 59 68 -31 33 -59 51 -85 58 -78 10
10 -63 160 -103 214 l-18 23 -10 -28z"/>
<path d="M7485 5228 c-116 -41 -335 -131 -335 -138 0 -19 17 -17 75 7 33 15
118 47 190 74 71 26 131 52 133 58 4 13 -23 13 -63 -1z"/>
<path d="M6103 5182 c-152 -91 -268 -195 -367 -327 -57 -75 -116 -174 -116
-193 0 -26 18 -9 54 54 60 102 119 177 208 265 80 79 221 181 286 208 17 7 32
17 32 22 0 22 -24 15 -97 -29z"/>
<path d="M1974 5155 c-10 -8 -24 -15 -30 -15 -7 0 -35 -15 -63 -34 -53 -36
-123 -56 -194 -56 -24 0 -48 -5 -54 -11 -6 -6 -17 -11 -24 -12 -8 -2 -30 -12
-49 -24 -20 -12 -54 -26 -76 -31 -24 -5 -146 -75 -295 -167 -797 -497 -759
-472 -759 -491 0 -31 461 -473 686 -656 80 -66 108 -78 171 -78 41 0 79 20
432 232 708 425 671 397 671 497 0 85 -96 390 -195 617 -56 129 -113 244 -121
244 -3 0 -14 -5 -24 -10 -13 -7 -21 -7 -25 0 -9 14 -28 12 -51 -5z m84 -112
c71 -141 107 -225 179 -427 61 -172 81 -254 35 -150 -40 94 -145 319 -247 527
-46 96 -55 120 -45 132 7 8 16 15 20 15 5 0 31 -44 58 -97z m64 -20 c111 -238
247 -630 235 -682 -1 -9 -9 9 -16 39 -38 153 -163 485 -245 649 -50 99 -51
101 -35 101 6 0 33 -48 61 -107z m-125 -34 c31 -63 116 -242 189 -399 l132
-285 -24 -9 c-14 -4 -26 -6 -28 -5 -42 67 -531 705 -547 715 -17 10 2 24 31
24 17 0 52 8 79 19 l49 18 53 -101 c61 -119 55 -110 69 -101 7 4 -9 43 -45
112 -51 98 -53 107 -37 119 9 7 18 11 19 10 2 -1 28 -54 60 -117z m-169 -161
c192 -248 412 -541 412 -551 0 -4 -54 57 -121 135 -66 79 -203 241 -305 360
-101 119 -184 221 -184 226 0 11 16 20 36 21 7 1 79 -86 162 -191z m-168 85
c36 -43 117 -139 180 -213 235 -274 370 -439 370 -449 0 -6 -4 -11 -9 -11 -16
0 -303 317 -466 515 -54 66 -117 139 -138 162 -34 36 -38 44 -27 58 7 8 15 15
19 15 4 0 36 -35 71 -77z m-109 14 c14 -12 76 -83 136 -157 107 -131 248 -293
361 -415 31 -33 70 -75 86 -94 28 -32 29 -34 6 -20 -26 16 -638 688 -639 702
-2 14 24 7 50 -16z m20 -107 c57 -64 197 -220 312 -347 209 -234 267 -285 333
-298 l37 -6 -34 -23 c-89 -60 -893 -537 -913 -542 -43 -11 -101 15 -176 78
-247 205 -681 620 -666 635 14 15 991 622 997 620 3 -1 52 -54 110 -117z m789
-554 c0 -7 -11 -25 -25 -40 -20 -21 -33 -26 -75 -26 -27 0 -50 3 -50 6 0 18
100 73 133 74 9 0 17 -6 17 -14z"/>
<path d="M1777 4983 c-3 -4 17 -32 43 -61 59 -66 80 -52 23 16 -40 47 -58 59
-66 45z"/>
<path d="M1980 4784 c0 -9 172 -278 192 -299 16 -17 18 -18 18 -2 0 24 -182
307 -197 307 -7 0 -13 -2 -13 -6z"/>
<path d="M1914 4104 c-244 -126 -584 -330 -584 -351 0 -7 3 -13 7 -13 3 0 52
29 107 64 96 60 218 133 316 188 25 14 100 53 167 87 67 34 125 66 128 71 17
27 -26 13 -141 -46z"/>
<path d="M4170 5018 c-58 -122 -69 -158 -47 -158 9 0 23 24 37 63 12 34 37 90
55 124 32 57 34 73 13 73 -5 0 -31 -46 -58 -102z"/>
<path d="M6494 5095 c-14 -21 -14 -32 -4 -74 16 -66 68 -153 102 -169 34 -16
65 -2 74 33 12 48 -26 166 -69 213 -29 31 -81 30 -103 -3z m87 -26 c49 -52 77
-183 42 -196 -23 -9 -68 47 -93 115 -23 61 -25 83 -8 100 18 18 27 15 59 -19z"/>
<path d="M7663 5002 l-41 -67 -119 -15 c-148 -19 -155 -33 -33 -69 47 -13 86
-25 87 -26 2 -1 -13 -31 -32 -67 -22 -41 -32 -69 -25 -73 6 -3 42 11 80 31 38
21 71 36 73 33 2 -2 23 -32 47 -66 65 -95 68 -88 44 74 l-7 42 97 45 c53 25
96 50 96 55 0 14 12 11 -105 24 l-100 12 0 64 c0 35 -4 66 -10 67 -5 2 -29
-27 -52 -64z m37 -62 l0 -40 53 0 c28 0 63 -3 77 -7 21 -6 16 -11 -50 -42 -80
-38 -79 -36 -65 -111 l5 -25 -17 21 c-10 12 -23 29 -28 39 -10 16 -14 16 -62
-9 -29 -14 -55 -26 -58 -26 -3 0 6 23 20 50 l25 50 -27 11 c-16 6 -40 13 -56
16 -53 11 -37 22 43 29 80 7 80 7 102 45 12 22 25 39 30 39 4 0 8 -18 8 -40z"/>
<path d="M4051 4969 c-33 -77 -36 -89 -21 -89 10 0 61 95 74 138 5 16 3 22 -7
22 -8 0 -28 -31 -46 -71z"/>
<path d="M6333 5022 c-19 -12 -44 -80 -33 -87 6 -4 30 -49 55 -101 24 -52 48
-94 54 -94 15 0 14 16 -4 50 -18 35 -15 36 67 14 33 -8 63 -12 67 -9 11 12
-29 33 -74 40 -25 3 -45 8 -45 11 0 3 9 18 21 33 26 35 20 77 -18 121 -25 30
-63 39 -90 22z m66 -39 c34 -42 37 -71 10 -99 -12 -13 -25 -24 -29 -24 -7 0
-50 86 -50 102 0 13 29 48 41 48 4 0 17 -12 28 -27z"/>
<path d="M3067 5003 c-28 -27 29 -224 69 -240 17 -6 54 23 54 44 0 17 -10 17
-31 -3 -16 -14 -18 -14 -29 6 -6 11 -13 52 -15 89 -1 38 -6 78 -10 90 -6 21
-25 28 -38 14z"/>
<path d="M2362 4984 c-32 -22 -30 -76 4 -103 15 -12 32 -21 39 -21 7 0 24 9
39 21 69 55 -9 154 -82 103z m66 -26 c30 -30 -4 -77 -41 -57 -20 11 -23 55 -4
62 21 9 32 8 45 -5z"/>
<path d="M4235 4924 c-40 -88 -39 -84 -20 -84 8 0 29 32 50 76 19 42 35 78 35
80 0 2 -7 4 -15 4 -10 0 -29 -30 -50 -76z"/>
<path d="M3201 4954 c-24 -30 -26 -55 -10 -87 23 -43 66 -50 99 -15 21 23 27
58 10 58 -5 0 -10 -4 -10 -8 0 -5 -10 -18 -21 -31 -27 -28 -52 -13 -27 16 26
29 30 59 13 77 -22 22 -30 20 -54 -10z m28 -36 c-8 -14 -14 -18 -17 -10 -4 13
17 46 25 38 3 -2 -1 -15 -8 -28z"/>
<path d="M6898 4931 c-101 -33 -243 -107 -369 -192 -82 -54 -106 -79 -79 -79
6 0 43 22 83 48 162 110 314 185 425 211 32 8 52 18 52 27 0 19 -12 18 -112
-15z"/>
<path d="M2967 4938 c-2 -7 4 -34 14 -60 16 -40 16 -48 4 -48 -36 0 -48 -101
-17 -140 23 -28 59 -20 68 16 5 20 9 22 20 13 24 -20 26 -3 5 39 -11 21 -25
61 -32 88 -20 83 -49 126 -62 92z m43 -188 c0 -57 -15 -66 -28 -17 -10 39 -4
67 14 67 10 0 14 -14 14 -50z"/>
<path d="M2830 4844 c0 -9 5 -33 11 -54 10 -34 9 -39 -16 -64 -24 -24 -27 -33
-22 -73 10 -87 70 -110 90 -33 6 23 11 30 17 21 4 -8 13 -10 19 -7 7 5 4 20
-11 49 -12 23 -31 71 -43 106 -20 62 -45 92 -45 55z m40 -176 c0 -56 -14 -79
-29 -50 -12 23 -15 75 -4 85 19 20 33 5 33 -35z"/>
<path d="M4813 4813 c-15 -21 -52 -69 -81 -106 -35 -45 -51 -72 -45 -78 7 -7
19 1 36 20 14 17 32 31 40 31 22 0 36 -23 26 -45 -11 -29 -11 -35 6 -35 18 0
65 155 65 218 0 42 -13 41 -47 -5z m5 -80 c-7 -29 -14 -40 -24 -36 -8 3 -14 9
-14 14 0 11 42 70 46 66 2 -1 -2 -21 -8 -44z"/>
<path d="M5163 4835 c-34 -14 -48 -43 -15 -30 68 28 115 27 131 -4 5 -9 7 -38
4 -65 -5 -40 -3 -52 12 -63 23 -16 68 -17 134 -1 45 10 53 9 70 -6 11 -10 23
-38 27 -62 3 -24 12 -51 18 -60 18 -24 -20 -94 -51 -94 -28 0 -38 -16 -17 -28
16 -9 16 -11 0 -33 -21 -30 -21 -75 0 -83 28 -11 54 -6 54 9 0 8 -9 15 -20 15
-24 0 -25 11 -4 51 13 26 19 29 45 24 33 -8 38 6 9 26 -20 14 -20 14 0 45 15
23 30 33 59 38 36 5 70 30 58 42 -3 3 -19 -2 -37 -11 -46 -24 -71 -4 -93 74
-11 40 -24 64 -38 72 -21 11 -34 10 -142 -7 -55 -9 -68 6 -61 71 6 48 4 53
-21 73 -32 25 -75 28 -122 7z"/>
<path d="M6978 4804 c-26 -8 -50 -19 -53 -25 -12 -18 4 -56 25 -62 33 -8 24
-34 -14 -41 -42 -8 -83 -53 -92 -102 -4 -20 -1 -75 6 -123 12 -86 12 -87 -14
-125 -34 -50 -34 -111 -2 -239 44 -171 117 -336 245 -552 39 -65 74 -135 77
-153 l7 -34 71 7 c38 4 78 11 86 15 10 5 22 34 29 67 7 32 36 137 66 233 83
273 100 361 100 525 0 159 -13 200 -76 243 -32 22 -34 28 -40 91 -11 117 -59
181 -136 181 -40 0 -46 29 -10 45 23 11 25 43 4 57 -21 14 -229 7 -279 -8z
m246 -10 c30 -12 16 -22 -50 -34 -88 -17 -216 -19 -221 -3 -5 15 26 25 107 33
90 10 146 11 164 4z m-20 -111 c3 -27 8 -78 11 -114 l6 -66 82 -31 c166 -64
186 -93 187 -262 0 -159 -29 -306 -110 -555 -21 -66 -45 -151 -53 -190 -15
-77 -20 -81 -109 -84 -30 -1 -38 3 -38 17 0 10 -34 76 -76 148 -91 155 -162
303 -202 416 -40 112 -74 272 -66 306 4 15 48 69 100 122 l93 95 -17 107 c-8
59 -13 110 -10 114 6 5 114 20 170 23 24 1 27 -3 32 -46z m113 -18 c34 -24 80
-185 53 -185 -5 0 -34 9 -64 21 -60 22 -56 15 -71 132 l-6 47 33 0 c19 0 43
-7 55 -15z m-330 -92 l12 -78 -52 -52 c-28 -29 -55 -49 -59 -45 -4 4 -11 49
-14 99 l-7 92 31 30 c17 17 41 31 54 31 22 0 25 -6 35 -77z"/>
<path d="M7107 4483 c-32 -3 -47 -8 -44 -16 5 -16 71 -21 97 -7 22 12 27 31 8
28 -7 -1 -35 -3 -61 -5z"/>
<path d="M7395 4359 c-4 -6 -4 -13 -1 -16 8 -8 36 5 36 17 0 13 -27 13 -35 -1z"/>
<path d="M7318 4343 c-19 -5 -24 -18 -10 -27 15 -9 52 6 52 20 0 14 -10 16
-42 7z"/>
<path d="M7233 4323 c-7 -3 -13 -12 -13 -20 0 -10 6 -13 16 -9 9 3 20 6 25 6
13 0 11 17 -3 22 -7 3 -19 3 -25 1z"/>
<path d="M7130 4302 c0 -14 11 -21 26 -15 21 8 17 23 -6 23 -11 0 -20 -4 -20
-8z"/>
<path d="M6977 4294 c-13 -13 -7 -24 14 -24 11 0 19 5 17 12 -5 14 -22 21 -31
12z"/>
<path d="M7050 4285 c0 -9 9 -15 25 -15 16 0 25 6 25 15 0 9 -9 15 -25 15 -16
0 -25 -6 -25 -15z"/>
<path d="M6890 4275 c0 -9 9 -15 25 -15 16 0 25 6 25 15 0 9 -9 15 -25 15 -16
0 -25 -6 -25 -15z"/>
<path d="M7393 4205 c-7 -21 -2 -25 25 -18 12 3 22 12 22 19 0 19 -39 18 -47
-1z"/>
<path d="M7300 4174 c0 -10 7 -14 22 -12 32 5 35 28 4 28 -17 0 -26 -5 -26
-16z"/>
<path d="M7218 4173 c-10 -3 -18 -9 -18 -14 0 -15 30 -23 43 -10 14 14 -2 29
-25 24z"/>
<path d="M7107 4153 c-13 -12 -7 -23 12 -23 10 0 24 7 31 15 10 13 9 15 -12
15 -14 0 -28 -3 -31 -7z"/>
<path d="M7000 4141 c0 -15 15 -21 38 -14 32 8 27 23 -8 23 -16 0 -30 -4 -30
-9z"/>
<path d="M6915 4130 c-8 -13 20 -24 41 -16 20 8 9 26 -16 26 -10 0 -22 -5 -25
-10z"/>
<path d="M7387 4024 c-14 -14 -7 -25 13 -22 12 2 21 8 21 13 0 12 -24 18 -34
9z"/>
<path d="M7305 4010 c-8 -13 20 -24 40 -16 8 3 15 10 15 16 0 13 -47 13 -55 0z"/>
<path d="M7237 4004 c-14 -14 -7 -25 13 -22 12 2 21 8 21 13 0 12 -24 18 -34
9z"/>
<path d="M6970 3976 c0 -10 9 -16 21 -16 24 0 21 23 -4 28 -10 2 -17 -3 -17
-12z"/>
<path d="M7057 3983 c-15 -14 -6 -23 23 -23 20 0 30 5 30 15 0 15 -40 21 -53
8z"/>
<path d="M7167 3983 c-13 -12 -7 -23 13 -23 11 0 20 7 20 15 0 15 -21 21 -33
8z"/>
<path d="M3951 4740 l-32 -39 -51 31 c-56 34 -57 34 -94 -28 -10 -17 -12 -17
-57 0 -54 20 -62 18 -77 -28 -10 -33 -12 -34 -63 -32 l-52 1 -3 -42 c-3 -35
-7 -43 -33 -53 -16 -7 -41 -22 -55 -33 l-25 -20 36 -37 c36 -37 36 -38 22 -73
-19 -44 -8 -57 50 -57 24 0 42 -3 42 -7 -1 -5 -1 -25 0 -47 1 -32 4 -37 19
-31 9 3 36 11 59 18 40 10 44 9 71 -16 15 -15 32 -27 38 -27 5 0 33 16 61 35
l53 35 39 -36 c45 -40 55 -38 104 14 l29 30 61 -24 c59 -23 63 -24 75 -7 7 10
16 29 19 42 5 22 9 23 64 17 64 -8 69 -4 79 53 5 32 10 36 55 50 28 8 52 16
54 18 2 1 -4 21 -14 43 l-18 40 37 44 c20 24 36 49 36 54 0 12 -34 22 -77 22
-31 0 -33 2 -33 38 0 21 -2 41 -6 44 -3 3 -26 -1 -51 -8 -68 -21 -81 -18 -104
21 -12 19 -25 35 -29 35 -5 0 -31 -14 -59 -31 l-50 -32 -36 32 c-20 17 -39 31
-44 31 -4 0 -22 -18 -40 -40z m118 -50 c7 0 33 12 58 27 44 25 47 26 57 9 33
-56 37 -57 96 -41 30 8 56 15 58 15 1 0 2 -18 2 -40 l0 -40 45 0 c25 0 45 -3
45 -8 0 -4 -14 -24 -30 -44 -30 -36 -30 -38 -15 -67 8 -17 15 -32 15 -34 0 -3
-20 -10 -44 -16 -45 -11 -56 -26 -56 -79 0 -22 -2 -23 -60 -16 l-59 6 -17 -36
c-10 -20 -21 -36 -25 -36 -5 0 -32 9 -60 20 l-52 21 -37 -36 c-19 -19 -40 -35
-46 -35 -6 0 -23 14 -39 30 -16 17 -35 30 -42 30 -8 0 -37 -16 -66 -35 l-51
-35 -28 27 c-27 26 -46 27 -115 7 -20 -5 -22 -2 -25 37 l-3 44 -44 -4 c-38 -3
-43 -1 -37 14 20 53 18 64 -14 91 l-31 27 48 26 c43 23 48 30 51 64 l3 39 47
-4 c45 -3 47 -2 64 34 l18 37 47 -20 c45 -19 49 -19 58 -4 6 10 17 26 26 38
15 20 16 20 61 -7 24 -14 49 -26 55 -26 6 0 23 18 38 40 l28 41 32 -31 c17
-16 37 -30 44 -30z"/>
<path d="M3915 4591 c-10 -17 -22 -140 -15 -152 4 -6 20 -9 35 -7 37 4 46 28
11 28 -16 0 -26 6 -26 14 0 19 27 46 47 46 8 0 13 6 10 13 -2 6 -14 11 -26 9
-19 -3 -21 0 -16 21 7 25 -8 46 -20 28z"/>
<path d="M4197 4583 c-4 -3 -23 -7 -43 -9 -20 -2 -39 -6 -42 -8 -3 -3 -7 -28
-10 -56 -5 -58 13 -70 24 -15 6 36 16 47 48 59 16 6 18 3 12 -25 -4 -23 -1
-38 10 -50 14 -16 15 -21 4 -34 -24 -29 -69 -45 -142 -53 -83 -8 -109 -32 -34
-32 134 0 204 44 236 150 22 73 11 109 -15 47 -8 -20 -15 -41 -15 -47 0 -5 -5
-10 -11 -10 -7 0 -8 14 -4 39 6 36 -4 59 -18 44z"/>
<path d="M4060 4556 c-5 -15 -10 -33 -10 -40 0 -8 -7 -20 -17 -27 -15 -13 -16
-10 -11 29 8 53 -18 60 -27 8 -12 -59 -5 -71 40 -71 l40 0 6 55 c7 62 -5 88
-21 46z"/>
<path d="M3846 4543 c-3 -4 -16 -7 -28 -8 -19 -1 -24 -9 -30 -50 -4 -27 -5
-52 -2 -57 11 -18 24 -7 24 20 0 24 25 62 41 62 3 0 3 -19 1 -41 -3 -32 -1
-40 9 -37 20 7 25 104 5 111 -8 3 -17 3 -20 0z"/>
<path d="M3697 4512 c-46 -51 -17 -129 38 -104 14 6 25 18 25 27 0 18 -12 19
-27 4 -6 -6 -16 -8 -22 -5 -17 11 -13 26 7 26 25 0 56 35 49 55 -9 21 -50 19
-70 -3z"/>
<path d="M3596 4498 c-20 -29 -21 -82 -1 -98 12 -10 21 -10 40 -2 34 15 33 36
-1 28 -24 -6 -25 -5 -22 26 2 25 8 33 23 33 27 0 26 29 -2 33 -13 2 -27 -5
-37 -20z"/>
<path d="M5902 4725 c-15 -32 -15 -35 1 -35 16 0 40 38 32 50 -10 17 -21 11
-33 -15z"/>
<path d="M5983 4733 c-3 -10 -18 -49 -34 -88 -26 -67 -28 -85 -10 -85 8 0 65
134 73 169 5 21 -21 25 -29 4z"/>
<path d="M2697 4723 c-12 -11 -8 -23 8 -23 8 0 15 7 15 15 0 16 -12 20 -23 8z"/>
<path d="M2576 4655 c4 -36 3 -65 -1 -65 -4 0 -26 17 -49 37 -35 32 -41 35
-44 19 -5 -24 70 -186 86 -186 17 0 15 15 -8 60 -25 50 -25 55 2 36 40 -28 51
-21 45 29 -3 25 -3 45 1 45 4 0 25 -31 46 -70 35 -65 56 -87 56 -58 0 23 -114
218 -127 218 -11 0 -12 -13 -7 -65z"/>
<path d="M4851 4644 c-27 -44 -31 -64 -13 -64 4 0 16 13 25 30 41 68 93 61 58
-8 -23 -45 -26 -62 -11 -62 5 0 21 23 35 50 28 55 22 90 -15 90 -10 0 -25 3
-34 6 -10 4 -24 -9 -45 -42z"/>
<path d="M3184 4655 c-34 -34 -28 -59 15 -65 42 -6 49 -22 22 -49 -22 -22 -27
-41 -12 -41 17 0 61 50 61 69 0 23 -35 51 -65 51 -19 1 -19 1 3 19 23 20 29
41 12 41 -6 0 -22 -11 -36 -25z"/>
<path d="M2710 4660 c0 -19 50 -110 60 -110 16 0 12 17 -15 70 -23 46 -45 65
-45 40z"/>
<path d="M6013 4636 c-10 -33 -8 -46 8 -46 10 0 30 60 23 71 -10 17 -21 9 -31
-25z"/>
<path d="M4999 4601 c-16 -16 -29 -40 -29 -54 0 -29 32 -60 56 -55 27 5 28 26
2 30 -48 7 -22 78 29 78 14 0 23 6 23 15 0 26 -49 17 -81 -14z"/>
<path d="M5162 4619 c2 -6 8 -10 13 -10 5 0 11 4 13 10 2 6 -4 11 -13 11 -9 0
-15 -5 -13 -11z"/>
<path d="M3060 4580 c-23 -23 -26 -75 -8 -114 21 -47 65 -43 107 10 31 39 14
50 -23 15 -18 -17 -37 -31 -44 -31 -17 0 -15 27 2 33 8 3 22 18 32 32 35 54
-21 100 -66 55z m50 -23 c0 -8 -9 -22 -20 -32 -17 -16 -20 -16 -20 -2 0 26 11
47 26 47 8 0 14 -6 14 -13z"/>
<path d="M5107 4545 c-29 -49 -33 -65 -17 -65 13 0 70 92 64 102 -10 15 -19 8
-47 -37z"/>
<path d="M4667 4549 c-92 -76 -112 -219 -31 -219 31 0 84 50 84 79 0 23 -34
45 -56 37 -21 -8 -17 -26 6 -26 24 0 25 -8 4 -38 -16 -23 -48 -29 -59 -11 -14
21 18 102 55 140 41 44 65 49 73 18 7 -27 27 -15 27 16 0 45 -51 47 -103 4z"/>
<path d="M5211 4547 c-38 -19 -65 -61 -57 -90 7 -30 53 -51 90 -41 29 7 30 31
1 26 -29 -6 -65 7 -65 24 0 12 7 14 35 8 27 -5 41 -2 55 11 26 23 25 40 -2 59
-27 19 -27 19 -57 3z m40 -32 c0 -13 -41 -19 -41 -7 0 11 20 22 33 18 5 -1 8
-6 8 -11z"/>
<path d="M152 4484 c-23 -25 -39 -50 -36 -55 7 -12 34 -11 34 1 0 6 3 10 8 10
4 0 6 -19 4 -43 -4 -52 28 -154 70 -220 70 -109 308 -286 308 -228 0 4 -35 31
-78 59 -106 69 -183 147 -221 224 -35 72 -52 147 -42 186 l7 27 12 -33 c6 -17
18 -32 26 -32 21 0 20 7 -6 71 -34 86 -39 88 -86 33z"/>
<path d="M2936 4498 c-19 -27 -21 -93 -3 -128 16 -31 46 -38 64 -14 17 24 16
12 -3 -51 -19 -59 -13 -101 15 -110 51 -16 80 38 55 105 -9 25 -16 61 -15 80
0 19 -3 37 -8 40 -4 3 -18 26 -29 53 -24 53 -50 62 -76 25z m50 -33 c7 -30 -3
-95 -16 -95 -17 0 -31 66 -21 94 13 33 29 33 37 1z m58 -181 c9 -33 -1 -64
-20 -64 -15 0 -18 29 -8 68 8 29 20 28 28 -4z"/>
<path d="M5342 4508 c-27 -34 -53 -101 -43 -111 7 -7 15 1 27 26 11 23 28 40
48 47 46 16 54 -1 28 -55 -24 -50 -27 -65 -12 -65 17 0 62 101 56 126 -6 24
-45 42 -65 29 -6 -3 -11 -1 -11 4 0 15 -15 14 -28 -1z"/>
<path d="M6177 4500 c-85 -15 -150 -55 -272 -170 -128 -121 -195 -161 -307
-184 -37 -8 -71 -17 -77 -21 -32 -19 17 -83 86 -113 27 -11 86 -25 133 -31
326 -42 360 -55 562 -217 160 -129 247 -174 348 -182 96 -7 104 2 74 76 -28
69 -40 148 -54 337 -5 77 -17 167 -25 199 -44 168 -165 278 -335 305 -36 6
-69 10 -75 10 -5 -1 -32 -5 -58 -9z m217 -51 c101 -37 186 -134 221 -252 8
-27 22 -134 30 -236 9 -102 18 -195 20 -206 3 -11 -2 -5 -10 13 -9 18 -26 98
-40 177 -34 199 -53 246 -129 321 -85 84 -147 108 -281 108 -93 1 -105 -1
-166 -31 -35 -18 -105 -61 -154 -96 -89 -63 -183 -117 -206 -117 -6 0 21 16
60 36 52 26 103 65 179 136 59 56 124 112 145 125 88 55 219 64 331 22z m-27
-133 c35 -16 68 -34 74 -42 16 -19 -4 -78 -40 -120 -24 -26 -30 -43 -29 -72 0
-21 -4 -48 -11 -60 -18 -34 -4 -45 29 -22 15 11 38 20 49 20 26 0 61 34 61 58
0 11 9 27 21 38 27 24 34 12 49 -81 40 -244 75 -359 122 -402 18 -16 18 -18 2
-23 -27 -10 -110 7 -169 34 -56 25 -107 62 -240 170 -148 121 -224 150 -483
186 -140 19 -214 42 -240 72 -11 13 -4 16 52 20 77 7 161 43 261 114 178 127
224 145 345 141 67 -3 98 -9 147 -31z m141 -112 c22 -33 22 -38 8 -52 -15 -15
-18 -15 -37 5 -16 16 -20 28 -14 52 4 17 10 31 13 31 4 0 18 -16 30 -36z m-38
-88 c0 -7 -14 -23 -32 -36 -28 -20 -30 -21 -24 -4 5 10 13 32 18 47 8 22 13
25 24 16 8 -6 14 -17 14 -23z"/>
<path d="M6095 4210 c-25 -27 -102 -75 -148 -91 -38 -13 -46 -37 -11 -31 57 9
204 105 204 133 0 16 -26 9 -45 -11z"/>
<path d="M5870 4027 c0 -14 11 -17 63 -17 178 0 254 -34 403 -181 70 -70 117
-108 124 -104 15 9 -176 203 -240 245 -62 39 -137 59 -252 67 -87 5 -98 4 -98
-10z"/>
<path d="M6440 3903 c0 -30 7 -60 20 -81 26 -43 43 -33 24 14 -8 20 -16 52
-17 71 -3 58 -27 54 -27 -4z"/>
<path d="M2746 4492 c-3 -4 -1 -26 4 -48 14 -58 12 -100 -5 -114 -21 -18 -19
-33 5 -27 16 4 22 -1 28 -26 12 -46 27 -30 27 27 0 36 5 51 18 60 15 9 22 6
45 -22 42 -50 62 -36 22 15 -12 16 -18 34 -15 45 5 13 1 18 -13 18 -11 0 -37
18 -58 40 -39 41 -49 46 -58 32z m54 -72 c6 -11 8 -26 4 -32 -5 -8 -10 -5 -15
8 -16 41 -8 59 11 24z"/>
<path d="M7764 4460 c-28 -11 -54 -48 -54 -76 0 -35 47 -84 80 -84 44 0 82 38
83 83 2 58 -55 98 -109 77z m78 -55 c14 -31 -12 -75 -44 -75 -45 0 -76 58 -46
88 7 7 27 12 45 12 26 0 36 -6 45 -25z"/>
<path d="M4761 4371 c-17 -32 -27 -61 -24 -65 3 -3 23 10 45 29 30 28 44 34
64 29 22 -6 25 -4 22 12 -3 14 -11 18 -31 17 -21 -1 -27 3 -27 18 0 35 -19 20
-49 -40z"/>
<path d="M4889 4341 c-33 -34 -37 -70 -10 -95 22 -20 82 -18 89 3 3 10 -2 12
-24 8 -31 -6 -54 0 -54 14 0 5 15 9 33 9 63 0 103 55 58 80 -33 17 -61 11 -92
-19z m79 -13 c-3 -7 -20 -14 -38 -16 -30 -3 -32 -2 -21 12 16 19 65 22 59 4z"/>
<path d="M5037 4309 c-24 -14 -49 -67 -42 -90 9 -28 42 -42 81 -34 51 9 45 34
-8 32 -36 -2 -43 1 -43 17 0 16 8 19 49 20 34 1 52 6 59 18 24 37 -48 65 -96
37z m63 -19 c11 -7 6 -10 -20 -10 -26 0 -31 3 -20 10 8 5 17 10 20 10 3 0 12
-5 20 -10z"/>
<path d="M5188 4264 c-49 -26 -63 -78 -30 -107 24 -22 82 -23 82 -2 0 10 -10
15 -29 15 -16 0 -34 7 -41 15 -9 11 -7 19 15 40 15 16 32 24 41 21 23 -9 37 3
23 20 -14 17 -27 17 -61 -2z"/>
<path d="M5309 4229 c-27 -10 -49 -46 -49 -79 0 -25 37 -50 73 -50 35 0 32 23
-4 28 -41 6 -46 22 -7 22 59 0 93 56 49 80 -23 12 -27 12 -62 -1z m51 -33 c0
-17 -24 -27 -45 -20 -12 5 -13 10 -4 20 15 18 49 18 49 0z"/>
<path d="M7666 4079 c-45 -162 -47 -186 -13 -193 50 -10 163 -15 175 -7 7 4
20 34 28 67 9 32 26 76 40 96 38 59 37 61 -76 73 -30 3 -74 8 -97 11 l-42 6
-15 -53z m146 6 l67 -7 -18 -37 c-10 -20 -25 -55 -32 -79 -7 -23 -17 -46 -23
-51 -6 -5 -41 -7 -78 -4 -79 7 -77 2 -47 116 19 70 24 78 43 74 11 -3 51 -9
88 -12z"/>
<path d="M4135 4090 c-44 -3 -237 -17 -428 -30 -191 -13 -351 -27 -356 -30 -7
-5 11 -286 20 -293 2 -2 57 0 123 5 65 5 120 7 123 4 4 -4 28 -935 33 -1253
l0 -33 115 0 115 0 0 44 c0 24 3 58 6 75 5 24 3 31 -10 31 -14 0 -16 14 -16
89 0 68 -4 93 -16 105 -18 18 -23 19 -44 6 -11 -7 -16 -34 -20 -96 -5 -91 -18
-115 -54 -101 -13 5 -16 22 -16 95 0 106 11 142 49 165 32 19 96 23 106 7 3
-5 12 -10 20 -10 18 0 21 32 40 415 8 171 18 351 21 402 l6 91 107 7 c58 4
119 8 136 9 l30 2 22 134 c12 74 22 143 22 153 1 19 6 18 -134 7z"/>
<path d="M4664 4060 c-95 -19 -183 -88 -246 -193 -104 -171 -156 -415 -165
-777 l-6 -205 52 3 c46 4 52 2 60 -20 8 -18 5 -27 -11 -40 -11 -10 -30 -18
-43 -18 -32 0 -38 -33 -18 -110 70 -286 302 -356 518 -155 48 44 57 58 45 65
-10 6 -16 32 -18 85 -5 88 15 156 54 181 23 16 80 16 115 0 13 -6 22 13 52
106 88 275 128 536 107 704 -11 91 -51 211 -69 207 -5 -2 -8 3 -6 10 3 6 -9
27 -25 46 -17 18 -30 30 -30 25 0 -5 -5 -1 -11 10 -15 25 -106 63 -181 76 -72
11 -115 11 -174 0z m175 -304 c73 -78 84 -310 25 -558 -12 -51 -14 -78 -6
-114 7 -31 7 -57 0 -78 -19 -55 -26 -50 -22 15 3 45 1 58 -5 44 -5 -11 -10
-31 -10 -46 -1 -14 -5 -29 -9 -35 -5 -5 -17 -29 -27 -54 -14 -35 -17 -70 -16
-155 2 -141 -3 -165 -35 -165 -35 0 -54 60 -30 98 4 6 3 12 -3 12 -6 0 -8 8
-4 18 3 9 -10 0 -31 -20 -20 -21 -41 -38 -46 -38 -6 0 -10 -6 -10 -14 0 -23
-55 -56 -94 -56 -25 0 -45 9 -71 31 l-35 31 0 138 c0 130 1 139 20 145 11 3
24 4 28 1 5 -3 12 48 15 114 16 296 103 580 207 674 34 31 47 36 88 36 38 0
53 -5 71 -24z m-256 -51 c-3 -9 -8 -14 -10 -11 -3 3 -2 9 2 15 9 16 15 13 8
-4z m240 -1130 c-3 -9 -8 -14 -10 -11 -3 3 -2 9 2 15 9 16 15 13 8 -4z"/>
<path d="M4424 2811 c2 -122 4 -129 28 -156 30 -32 81 -36 122 -9 35 22 17 36
-39 29 -22 -3 -47 -1 -55 4 -18 12 -29 151 -11 151 6 0 11 11 11 25 0 14 -4
25 -10 25 -5 0 -10 14 -10 30 0 23 -5 30 -19 30 -19 0 -20 -7 -17 -129z"/>
<path d="M4727 2808 c-24 -46 -20 -171 6 -176 15 -3 17 7 17 102 0 58 -1 106
-3 106 -1 0 -10 -15 -20 -32z"/>
<path d="M4480 2758 c0 -45 4 -59 18 -66 25 -13 46 -4 32 13 -6 8 -20 35 -30
62 l-19 48 -1 -57z"/>
<path d="M3005 4019 c-171 -25 -306 -95 -371 -193 -78 -118 -83 -261 -14 -421
17 -39 23 -46 31 -35 8 11 9 9 4 -8 -9 -33 76 -112 220 -203 65 -41 133 -91
151 -113 40 -47 64 -113 64 -179 l0 -50 20 25 c42 54 141 63 180 16 29 -34 25
-51 -27 -102 -48 -48 -68 -54 -87 -24 -8 13 -5 24 12 47 27 36 27 42 5 34 -45
-17 -56 -75 -23 -111 17 -18 32 -22 83 -22 75 0 92 -9 83 -43 -7 -31 -18 -33
-112 -27 -84 6 -117 28 -136 92 -11 36 -12 37 -25 18 -8 -11 -11 -25 -8 -30 4
-6 3 -9 -2 -8 -8 2 -40 -16 -96 -54 -20 -14 -37 -17 -58 -13 -34 8 -34 14 -14
-113 22 -135 21 -132 61 -132 88 0 273 67 267 97 -1 6 5 10 14 9 24 -2 97 94
124 161 33 83 34 247 1 351 -15 47 -27 70 -34 66 -7 -4 -8 -3 -4 5 10 16 -43
96 -101 152 -71 68 -247 203 -240 184 4 -10 3 -14 -4 -10 -6 4 -8 13 -5 21 3
8 -3 29 -14 47 -27 44 -26 112 2 153 33 49 72 67 156 72 l74 5 -6 41 c-3 22
-8 84 -12 136 -4 52 -8 102 -10 110 -1 8 -3 25 -3 38 -1 19 -6 22 -43 21 -24
-1 -70 -5 -103 -10z m0 -1407 c-3 -3 -11 0 -18 7 -9 10 -8 11 6 5 10 -3 15 -9
12 -12z"/>
<path d="M5466 3901 c-3 -5 -16 -44 -30 -87 -104 -340 -136 -455 -130 -466 4
-6 3 -8 -2 -5 -6 3 -27 -54 -49 -126 -21 -73 -53 -178 -71 -234 l-32 -101 23
-45 c29 -58 35 -195 10 -221 -20 -20 -29 -20 -49 -1 -11 12 -15 34 -13 90 1
41 1 75 1 75 -3 0 -55 -169 -89 -286 l-32 -112 61 -16 c129 -33 157 -39 165
-30 5 5 28 65 51 134 23 69 44 130 46 135 3 6 -8 23 -22 38 -112 121 34 320
163 221 18 -14 33 -32 33 -40 0 -8 -22 -39 -50 -68 -27 -29 -50 -58 -50 -64 0
-6 15 -12 33 -14 25 -2 33 -8 35 -26 4 -26 -15 -55 -30 -46 -6 4 -8 -1 -5 -12
4 -11 26 -86 51 -169 24 -82 47 -157 51 -166 5 -13 225 -113 232 -105 3 2
-129 638 -143 687 -3 12 7 20 41 29 26 7 42 17 38 23 -4 6 -1 7 6 2 16 -9 92
25 84 38 -3 6 -1 7 5 3 22 -13 158 96 146 116 -3 5 0 7 6 6 18 -4 75 112 95
190 9 37 17 104 16 150 0 71 -4 93 -29 145 -16 34 -50 85 -75 113 -54 60 -170
139 -188 128 -7 -4 -9 -3 -6 3 7 11 -35 33 -131 69 -97 36 -161 54 -166 45z
m240 -383 c27 -18 59 -49 72 -68 21 -31 23 -44 20 -105 -5 -76 -28 -131 -78
-188 -16 -19 -26 -37 -22 -41 4 -4 2 -7 -3 -5 -6 1 -27 -5 -48 -15 -45 -20
-147 -31 -166 -18 -20 14 135 472 160 472 9 0 39 -15 65 -32z m-109 -824 c-3
-3 -12 -4 -19 -1 -8 3 -5 6 6 6 11 1 17 -2 13 -5z m-20 -51 c-3 -10 -5 -4 -5
12 0 17 2 24 5 18 2 -7 2 -21 0 -30z m28 2 c1 -14 -2 -22 -5 -19 -3 3 -5 16
-5 29 -1 14 2 22 5 19 3 -3 5 -16 5 -29z m35 7 c0 -9 -4 -23 -8 -30 -5 -8 -8
1 -8 22 1 19 4 32 9 29 4 -2 7 -12 7 -21z m-93 -4 c-3 -8 -6 -5 -6 6 -1 11 2
17 5 13 3 -3 4 -12 1 -19z m60 -44 c-3 -3 -12 -4 -19 -1 -8 3 -5 6 6 6 11 1
17 -2 13 -5z"/>
<path d="M2132 3775 c-79 -29 -145 -55 -147 -57 -1 -1 44 -127 101 -278 57
-151 119 -318 138 -370 19 -52 53 -142 75 -200 22 -58 81 -219 133 -357 51
-139 98 -253 103 -253 6 0 54 12 107 27 112 32 106 7 51 198 -19 66 -40 123
-47 127 -8 4 -27 20 -44 36 -40 37 -52 109 -28 166 17 40 16 44 -74 356 -11
36 -44 155 -75 265 -97 341 -115 395 -133 394 -9 0 -81 -25 -160 -54z"/>
<path d="M187 3756 c-76 -14 -108 -36 -88 -60 7 -8 24 -16 39 -18 24 -3 27 -9
39 -68 16 -79 58 -168 110 -234 l39 -50 -38 -65 c-55 -95 -79 -166 -85 -252
-6 -76 -6 -77 -37 -86 -32 -9 -48 -45 -28 -65 12 -12 313 -11 406 2 71 10 100
28 90 55 -3 8 -18 18 -33 23 -20 7 -30 21 -40 53 -23 77 -80 187 -136 261 -30
40 -55 77 -55 81 0 5 9 21 20 37 46 65 99 192 105 255 7 59 9 65 30 65 42 0
69 42 43 68 -16 16 -288 14 -381 -2z m363 -25 c0 -9 -65 -15 -302 -26 -76 -4
-118 -2 -118 4 0 9 12 13 90 24 54 9 330 7 330 -2z m-83 -100 c-4 -33 -18 -85
-32 -116 -24 -56 -25 -57 -57 -49 -32 6 -60 7 -103 2 -15 -2 -24 9 -43 55 -13
32 -26 80 -29 107 l-6 49 94 4 c52 1 114 4 138 5 l44 2 -6 -59z m-82 -202 c6
-6 3 -16 -9 -27 -16 -16 -18 -16 -37 7 -13 15 -26 22 -39 18 -22 -6 -28 8 -7
17 16 7 80 -3 92 -15z m-35 -75 c0 -3 -7 -1 -15 6 -8 7 -15 17 -15 22 0 5 7 3
15 -6 8 -8 15 -18 15 -22z m58 -127 c35 -47 92 -147 92 -162 0 -3 -20 -5 -44
-5 -24 0 -83 -7 -131 -15 -48 -9 -89 -14 -91 -12 -2 2 3 30 11 62 19 73 75
177 92 171 7 -3 15 -1 18 4 9 15 12 13 53 -43z m2 -217 c-25 -19 -23 -32 6
-36 10 -2 21 9 27 27 9 24 17 29 43 29 28 0 34 -5 44 -36 7 -19 10 -37 8 -38
-1 -2 -38 -7 -81 -11 -68 -6 -76 -5 -71 9 4 11 1 16 -10 16 -9 0 -16 -7 -16
-16 0 -14 -10 -16 -60 -12 -37 3 -61 0 -63 -6 -3 -6 -8 -8 -12 -4 -4 4 -2 14
5 23 7 8 10 21 7 29 -4 11 7 17 44 25 67 15 80 14 73 -4 -4 -9 0 -15 10 -15 9
0 16 8 16 20 0 15 7 20 28 20 l27 0 -25 -20z m180 -100 c8 -5 12 -11 10 -14
-7 -6 -283 -26 -364 -26 -56 0 -88 11 -74 25 6 6 235 22 333 23 44 1 87 -2 95
-8z"/>
<path d="M342 3418 c6 -18 28 -21 28 -4 0 9 -7 16 -16 16 -9 0 -14 -5 -12 -12z"/>
<path d="M342 3249 c-19 -7 -21 -13 -15 -36 3 -16 6 -36 5 -45 0 -10 6 -18 13
-18 11 0 14 10 11 40 -3 30 0 40 10 40 15 0 19 16 7 23 -5 3 -18 1 -31 -4z"/>
<path d="M332 3098 c5 -15 28 -18 29 -3 0 6 -7 12 -17 13 -10 3 -15 -1 -12
-10z"/>
<path d="M470 3011 c0 -12 29 -35 36 -28 11 10 -5 37 -21 37 -8 0 -15 -4 -15
-9z"/>
<path d="M310 2985 c0 -9 5 -15 11 -13 6 2 11 8 11 13 0 5 -5 11 -11 13 -6 2
-11 -4 -11 -13z"/>
<path d="M262 2979 c2 -6 8 -10 13 -10 5 0 11 4 13 10 2 6 -4 11 -13 11 -9 0
-15 -5 -13 -11z"/>
<path d="M455 2980 c-9 -15 -1 -23 21 -18 15 3 16 4 1 16 -11 9 -17 10 -22 2z"/>
<path d="M7890 3681 c0 -4 -19 -29 -41 -55 -40 -45 -121 -96 -154 -96 -8 0
-15 -7 -15 -15 0 -19 35 -12 95 18 l40 19 -39 -40 c-43 -45 -110 -83 -233
-132 -143 -56 -220 -149 -231 -276 -6 -81 13 -87 23 -7 16 130 87 207 250 273
124 50 180 85 236 148 l41 47 -8 -63 c-10 -88 9 -79 29 16 26 120 31 172 18
172 -6 0 -11 -4 -11 -9z"/>
<path d="M728 3634 c-38 -19 -68 -41 -68 -49 0 -8 2 -15 5 -15 15 0 145 72
145 80 0 20 -18 16 -82 -16z"/>
<path d="M6230 3185 l0 -444 -61 -126 c-33 -69 -57 -130 -53 -137 4 -6 3 -8
-3 -5 -12 8 -135 -251 -127 -266 4 -7 4 -9 -1 -5 -4 4 -21 -18 -37 -48 -17
-31 -26 -60 -21 -64 4 -4 47 -29 94 -54 l86 -46 61 105 c33 58 55 102 49 98
-7 -3 -3 5 9 18 36 42 66 98 58 111 -4 7 -4 10 1 6 14 -13 140 213 127 227 -4
5 -2 6 3 2 6 -3 21 13 33 36 13 23 44 57 70 75 26 17 126 89 222 159 96 69
219 157 273 195 92 66 116 87 82 74 -8 -3 -14 -1 -12 4 1 5 -41 40 -92 79 -78
57 -98 68 -114 60 -15 -9 -16 -13 -6 -27 11 -14 11 -15 0 -5 -11 9 -19 8 -37
-4 -13 -8 -21 -19 -18 -24 3 -5 1 -8 -3 -7 -8 3 -150 -113 -295 -239 -27 -24
-53 -43 -59 -43 -6 0 -7 18 -4 48 4 26 19 159 34 295 l27 248 -30 18 c-59 36
-160 80 -169 74 -6 -4 -7 -1 -2 7 6 10 4 12 -9 7 -9 -4 -15 -3 -12 1 3 5 -10
16 -29 25 l-35 17 0 -445z"/>
<path d="M1648 3567 c-31 -17 -54 -35 -51 -40 3 -6 1 -7 -5 -3 -9 5 -107 -38
-160 -69 -1 -1 28 -63 65 -138 37 -75 71 -133 76 -130 6 3 7 1 3 -5 -3 -6 41
-103 99 -216 l106 -205 -31 -16 c-17 -9 -28 -20 -25 -25 3 -6 -1 -7 -9 -4 -10
4 -16 1 -16 -7 0 -7 -3 -10 -6 -6 -3 3 -39 -15 -80 -40 -42 -25 -76 -44 -78
-42 -1 2 -13 21 -25 42 -13 20 -27 34 -33 31 -7 -4 -8 -2 -4 4 4 6 -12 42 -35
79 -71 116 -108 175 -155 248 -24 39 -53 87 -64 108 -13 22 -25 35 -32 31 -7
-4 -8 -3 -4 4 5 9 -27 74 -50 100 -1 2 -57 -38 -123 -88 -98 -75 -119 -95
-112 -109 24 -42 99 -140 105 -136 3 3 4 2 1 -1 -2 -4 25 -50 62 -103 78 -114
109 -151 117 -145 3 2 4 1 1 -2 -2 -4 1 -16 6 -27 9 -16 13 -17 21 -6 8 11 8
10 4 -4 -7 -21 71 -140 85 -132 4 3 11 0 15 -6 5 -8 3 -9 -6 -4 -8 5 -11 3 -8
-6 3 -8 10 -13 16 -12 6 2 9 -3 7 -10 -5 -12 109 -179 126 -185 5 -2 9 -10 9
-18 0 -9 4 -13 8 -10 5 3 9 -1 9 -8 0 -7 53 -89 118 -182 65 -93 119 -170 120
-172 5 -7 34 11 29 19 -3 5 2 6 10 3 8 -3 28 2 43 13 16 10 37 23 48 30 11 6
19 16 18 22 -2 6 4 8 12 5 8 -3 -22 60 -67 140 -45 80 -86 143 -91 139 -6 -3
-7 -1 -3 5 4 6 -2 29 -14 51 l-20 40 22 15 c13 8 63 37 112 65 82 46 90 49
101 33 6 -9 51 -93 99 -187 49 -93 92 -174 96 -179 11 -11 142 43 134 55 -3 5
2 6 10 3 17 -7 56 12 56 27 0 6 -5 7 -12 3 -6 -4 -8 -3 -5 3 4 6 -63 176 -149
379 -86 203 -177 421 -204 484 -101 244 -154 359 -163 353 -6 -4 -7 -1 -3 6 8
12 -52 172 -63 170 -3 0 -32 -14 -63 -32z"/>
<path d="M834 3545 c-92 -47 -184 -111 -192 -132 -7 -22 18 -14 64 21 25 19
86 56 137 82 108 55 103 52 90 65 -7 7 -38 -4 -99 -36z"/>
<path d="M879 3440 c-19 -15 -21 -19 -7 -20 27 0 48 11 48 26 0 19 -14 17 -41
-6z"/>
<path d="M7638 3096 c-50 -13 -158 -79 -158 -96 0 -6 -4 -10 -10 -10 -5 0 -10
11 -10 25 0 30 -9 31 -44 4 -49 -38 -79 -104 -84 -185 -2 -41 -6 -74 -9 -74
-2 0 -37 16 -79 36 -88 42 -101 61 -84 136 12 60 12 58 -2 58 -22 0 -79 -52
-99 -92 -20 -40 -22 -90 -5 -130 6 -14 0 -18 -36 -23 -49 -7 -87 4 -116 35
-30 32 -36 8 -11 -45 27 -57 79 -95 132 -95 34 0 38 -3 37 -22 -5 -58 1 -81
30 -109 33 -34 50 -31 50 9 0 60 73 132 133 132 15 0 41 -7 56 -14 22 -12 28
-22 27 -46 -1 -28 -6 -33 -57 -54 -124 -50 -198 -141 -229 -281 -6 -28 -20
-57 -31 -66 -16 -12 -21 -31 -26 -90 -6 -82 12 -256 29 -276 6 -7 26 -13 44
-13 73 0 18 -34 -113 -69 -89 -24 -93 -26 -93 -55 0 -34 88 -111 173 -152 225
-106 497 -79 692 69 60 45 150 147 150 169 0 16 -46 27 -147 35 -49 3 -88 7
-88 8 0 2 16 26 35 55 63 94 97 254 83 392 -7 76 -45 168 -86 211 -23 25 -27
37 -27 92 0 35 3 61 7 59 5 -3 8 -12 8 -20 0 -25 23 -11 33 20 14 41 0 92 -36
133 -31 35 -31 36 -7 28 37 -12 67 -33 85 -62 14 -20 19 -23 26 -12 27 43 -10
148 -62 175 l-33 16 25 14 c30 17 122 18 166 2 18 -6 35 -9 38 -6 11 11 -53
125 -84 151 -17 14 -53 30 -81 36 -60 13 -52 13 -112 -3z m142 -38 c38 -20 90
-76 90 -98 0 -4 -24 -5 -54 -2 -63 5 -115 -10 -156 -45 -34 -28 -31 -43 6 -43
39 0 64 -18 80 -57 19 -45 13 -50 -26 -21 -28 20 -45 23 -139 26 -104 4 -109
3 -139 -23 -17 -14 -37 -42 -44 -60 -14 -41 -24 -44 -34 -12 -21 65 -2 183 40
242 l21 30 5 -39 c7 -52 25 -56 48 -9 34 66 145 131 227 132 17 1 51 -9 75
-21z m-652 -161 c-1 -66 15 -85 107 -128 58 -26 92 -49 111 -74 32 -42 28 -51
-12 -30 -39 20 -77 19 -122 -4 -45 -23 -70 -50 -93 -99 l-17 -37 -11 30 c-11
27 -10 47 6 99 5 17 1 18 -38 12 -32 -5 -53 -2 -78 11 -44 23 -55 48 -17 41
31 -6 116 8 129 21 6 6 3 19 -7 32 -24 35 -20 88 9 132 14 20 27 37 29 37 3 0
4 -19 4 -43z m493 -129 c39 -22 69 -64 69 -98 0 -17 -3 -20 -12 -13 -19 14
-57 22 -63 13 -2 -4 3 -22 12 -40 19 -40 13 -140 -14 -215 l-18 -50 -3 80 c-3
101 -9 128 -27 122 -9 -4 -15 6 -20 33 -9 56 -44 84 -95 77 -47 -6 -52 8 -20
61 38 63 112 74 191 30z m-126 -133 c29 -28 35 -81 9 -71 -9 3 -20 6 -25 6 -5
0 -9 15 -9 33 0 18 -5 38 -12 45 -9 9 -9 12 0 12 7 0 24 -11 37 -25z m13 -122
c-3 -28 2 -30 36 -17 18 7 19 2 14 -94 -3 -56 -1 -102 4 -102 25 0 87 100 88
143 0 47 48 -7 81 -91 29 -75 32 -228 5 -316 -44 -146 -115 -243 -202 -276
-158 -59 -330 -44 -378 33 -6 9 -7 19 -4 23 4 3 51 17 106 29 158 38 278 99
308 157 12 23 13 36 4 63 -10 29 -20 37 -68 55 -83 31 -206 59 -292 65 -104 8
-120 13 -120 33 1 35 49 153 78 190 65 81 171 131 280 132 63 0 63 0 60 -27z
m-182 -373 c109 -23 203 -58 218 -82 42 -68 -184 -180 -430 -213 -48 -6 -52
-5 -58 17 -11 36 -20 252 -12 283 l7 28 91 -7 c49 -4 132 -16 184 -26z m498
-369 l39 -6 -44 -55 c-54 -66 -176 -150 -262 -180 -136 -48 -356 -35 -491 28
-63 30 -170 118 -161 132 3 5 27 13 53 19 27 5 78 21 114 34 l65 23 27 -22
c40 -35 99 -47 211 -41 103 5 191 29 235 65 17 14 37 17 98 14 42 -2 95 -7
116 -11z"/>
<path d="M7077 2124 c-9 -9 -9 -151 -1 -193 4 -18 11 -30 17 -28 7 2 10 41 8
108 -2 99 -9 128 -24 113z"/>
<path d="M7131 2033 c2 -93 10 -135 27 -141 9 -3 11 13 6 70 -3 40 -8 82 -9
93 -2 11 -4 28 -4 38 -1 9 -5 17 -11 17 -6 0 -10 -32 -9 -77z"/>
<path d="M7194 2097 c-9 -24 9 -192 21 -189 6 1 9 39 6 95 -3 90 -14 127 -27
94z"/>
<path d="M7256 2063 c-6 -27 6 -118 17 -129 15 -16 24 9 16 43 -5 21 -9 55 -9
76 0 43 -16 50 -24 10z"/>
<path d="M7330 2016 c0 -61 11 -89 25 -66 9 14 -6 130 -16 130 -5 0 -9 -29 -9
-64z"/>
<path d="M7405 2049 c-9 -14 4 -79 15 -79 6 0 10 20 10 45 0 43 -11 58 -25 34z"/>
<path d="M7474 2036 c-8 -21 3 -36 27 -36 15 0 20 6 17 22 -4 27 -35 37 -44
14z"/>
<path d="M7703 1737 c4 -14 67 -16 67 -2 0 5 -16 10 -36 12 -24 1 -34 -2 -31
-10z"/>
<path d="M7033 1696 c-42 -15 -50 -24 -29 -32 22 -8 76 15 76 32 0 16 -3 16
-47 0z"/>
<path d="M7610 1676 c0 -8 8 -17 18 -20 9 -2 27 -7 40 -11 36 -10 27 19 -11
33 -43 15 -47 15 -47 -2z"/>
<path d="M7103 1644 c-42 -45 -21 -63 22 -19 14 13 25 29 25 35 0 17 -24 9
-47 -16z"/>
<path d="M7510 1631 c0 -11 10 -27 22 -35 43 -31 52 -12 14 28 -28 31 -36 32
-36 7z"/>
<path d="M7196 1612 c-19 -37 -20 -52 -3 -52 7 0 18 14 25 32 16 44 -1 60 -22
20z"/>
<path d="M7294 1586 c-6 -37 1 -60 17 -51 12 8 12 85 -1 85 -5 0 -12 -15 -16
-34z"/>
<path d="M7403 1585 c7 -42 11 -50 25 -41 13 8 -1 69 -17 74 -11 4 -13 -4 -8
-33z"/>
<path d="M3183 2872 c-37 -6 -83 -56 -85 -94 -5 -116 46 -164 167 -156 42 2
50 6 50 23 0 18 -8 21 -73 25 -62 4 -77 9 -93 29 -10 13 -19 35 -19 50 0 38
40 84 73 84 41 0 44 -10 14 -41 -29 -30 -36 -62 -13 -62 17 0 86 75 86 93 0
30 -58 57 -107 49z"/>
<path d="M4288 2872 c-23 -3 -28 -8 -28 -33 0 -25 3 -28 18 -20 9 6 29 12 45
16 51 10 19 44 -35 37z"/>
<path d="M5366 2869 c-17 -4 -41 -21 -55 -36 -22 -23 -26 -37 -26 -85 0 -49 4
-62 26 -84 26 -26 27 -26 33 -6 4 13 0 31 -10 47 -20 31 -13 91 13 111 17 13
83 20 83 8 0 -3 -13 -19 -29 -36 -26 -28 -28 -33 -14 -47 14 -13 19 -11 54 27
45 47 48 64 17 84 -34 22 -60 27 -92 17z"/>
<path d="M3756 2851 c-42 -46 -49 -221 -10 -221 11 0 14 18 14 78 0 86 16 122
54 122 48 0 60 -21 67 -122 3 -51 7 -77 7 -58 1 19 5 71 8 115 7 80 6 81 -20
93 -41 19 -100 15 -120 -7z"/>
<path d="M4876 2839 c-24 -28 -26 -38 -26 -119 0 -69 3 -89 15 -94 18 -6 16
-11 21 84 4 95 17 120 61 120 20 0 33 -5 33 -12 0 -7 5 -5 11 5 18 31 3 47
-45 47 -37 0 -48 -5 -70 -31z"/>
<path d="M5138 2833 c-2 -10 -1 -61 2 -113 4 -75 8 -95 20 -95 19 0 27 132 10
188 -12 40 -25 48 -32 20z"/>
<path d="M2587 2799 c-17 -64 -1 -123 43 -156 22 -16 22 -11 6 38 -8 24 -17
60 -21 79 -11 53 -21 67 -28 39z"/>
<path d="M4920 2805 c-11 -13 -24 -135 -14 -135 1 0 19 28 40 61 35 59 36 63
19 75 -24 18 -30 17 -45 -1z"/>
<path d="M5352 2798 c-14 -14 -16 -67 -2 -88 7 -11 10 -6 10 22 0 20 7 43 15
52 8 8 15 17 15 20 0 11 -26 6 -38 -6z"/>
<path d="M164 2690 c-86 -43 -110 -154 -44 -212 85 -77 214 26 134 106 -31 32
-104 11 -104 -30 0 -18 14 -18 30 1 24 29 70 11 70 -26 0 -22 -37 -49 -68 -49
-12 0 -34 11 -47 25 -49 48 -22 131 51 161 45 19 73 18 118 -6 38 -19 62 -18
50 2 -11 17 -87 48 -119 48 -16 0 -48 -9 -71 -20z"/>
<path d="M5416 2647 c8 -28 11 -30 23 -22 18 10 12 32 -9 38 -18 4 -20 2 -14
-16z"/>
<path d="M670 2533 c0 -25 12 -81 26 -122 3 -9 8 -11 14 -5 6 6 6 22 0 44 -16
56 -4 45 29 -26 44 -93 109 -181 188 -254 111 -101 165 -129 468 -239 175 -64
303 -157 399 -291 56 -77 125 -223 126 -262 0 -10 7 -18 15 -18 20 0 19 4 -9
88 -38 110 -100 207 -195 303 -100 100 -183 152 -326 203 -297 107 -381 153
-487 262 -74 76 -88 95 -134 178 -31 58 -34 67 -16 57 47 -25 27 9 -33 58
l-65 52 0 -28z"/>
<path d="M6816 2462 c-2 -4 -8 -40 -11 -80 -7 -62 -5 -72 8 -72 28 0 137 52
137 66 0 12 -105 94 -121 94 -4 0 -10 -3 -13 -8z m84 -82 c0 -7 -52 -30 -67
-30 -5 0 -1 61 5 73 4 9 62 -31 62 -43z"/>
<path d="M985 2430 c-10 -16 252 -277 265 -264 8 8 -27 49 -120 142 -72 73
-133 132 -135 132 -2 0 -7 -5 -10 -10z"/>
<path d="M6600 2376 c0 -8 9 -18 20 -21 49 -16 45 -85 -6 -85 -29 0 -42 25
-25 52 17 27 3 43 -20 22 -40 -36 -8 -104 50 -104 39 0 75 43 66 80 -10 45
-85 94 -85 56z"/>
<path d="M490 2340 c0 -5 7 -10 15 -10 8 0 15 -2 15 -4 0 -13 -47 -110 -95
-197 -75 -136 -73 -148 19 -79 29 22 55 40 59 40 3 0 -5 -35 -18 -77 -14 -43
-21 -81 -17 -85 9 -9 113 71 193 149 45 44 61 54 78 48 33 -10 26 17 -10 38
-31 17 -55 15 -43 -4 7 -13 -12 -34 -99 -111 -37 -34 -70 -58 -73 -55 -4 3 3
34 15 68 12 35 21 67 21 71 0 16 -28 7 -68 -22 -23 -16 -43 -30 -45 -30 -8 0
114 235 123 238 6 2 10 10 10 18 0 10 -12 14 -40 14 -22 0 -40 -4 -40 -10z"/>
<path d="M3858 2237 c4 -86 2 -105 -12 -116 -23 -20 -21 -44 4 -36 16 5 20 2
20 -19 0 -23 23 -56 39 -56 12 0 41 35 41 48 0 18 -18 14 -29 -5 -12 -23 -18
-17 -25 29 -5 31 -2 39 14 48 26 14 26 34 1 27 -18 -4 -20 3 -26 89 -5 63 -11
94 -20 94 -9 0 -11 -26 -7 -103z"/>
<path d="M1010 2297 c0 -7 15 -28 34 -46 43 -42 57 -24 19 24 -28 35 -53 46
-53 22z"/>
<path d="M1205 2300 c-9 -14 59 -85 74 -76 8 5 2 19 -20 47 -31 40 -43 46 -54
29z"/>
<path d="M4153 2300 c-46 -18 -39 -79 8 -80 9 0 22 -7 29 -15 12 -15 5 -54
-11 -56 -5 -1 -13 -2 -19 -3 -20 -2 -15 -21 7 -24 28 -4 63 31 63 63 0 30 -32
65 -60 65 -29 0 -25 18 5 26 14 4 24 11 22 17 -5 15 -18 17 -44 7z"/>
<path d="M3977 2207 c-7 -47 0 -111 15 -139 13 -27 46 -22 66 10 11 18 24 26
35 24 16 -3 18 1 14 25 -3 15 -9 47 -12 71 -9 60 -35 58 -35 -3 0 -49 -22
-115 -39 -115 -12 0 -24 75 -19 125 4 55 -18 56 -25 2z"/>
<path d="M3586 2130 l7 -70 -27 0 c-49 0 -85 -97 -56 -151 17 -30 58 -24 78
11 21 36 28 37 36 5 8 -31 30 -34 24 -2 -17 80 -29 151 -34 210 -4 50 -9 67
-20 67 -13 0 -14 -12 -8 -70z m-1 -138 c-9 -47 -22 -72 -39 -72 -32 0 -24 81
11 107 24 19 36 5 28 -35z"/>
<path d="M4926 2192 c-8 -13 29 -147 41 -147 15 0 113 87 113 101 0 12 -31 27
-95 43 -48 13 -52 13 -59 3z m87 -42 l28 -10 -31 -26 c-17 -15 -33 -25 -35
-23 -2 2 -6 21 -10 42 -6 29 -4 36 6 32 8 -2 27 -9 42 -15z"/>
<path d="M3175 2175 c-33 -7 -80 -21 -105 -30 -125 -45 -314 -179 -282 -199 5
-3 32 14 61 38 105 86 242 149 374 171 22 3 37 11 35 17 -6 17 -17 18 -83 3z"/>
<path d="M2970 2173 c-74 -24 -120 -48 -120 -60 0 -10 6 -13 18 -9 125 42 152
53 152 64 0 12 -22 15 -50 5z"/>
<path d="M4597 2129 c-102 -24 -150 -75 -168 -176 -13 -74 -12 -283 1 -536
l11 -198 77 -125 c42 -68 80 -124 84 -124 10 0 112 130 174 221 l49 71 5 347
c7 462 -1 497 -112 520 -56 12 -68 12 -121 0z m174 -57 c18 -20 29 -43 29 -62
0 -30 0 -30 -57 -30 -65 0 -227 -24 -268 -40 -26 -10 -26 -10 -20 22 23 104
95 150 224 145 57 -3 66 -6 92 -35z m39 -126 c0 -8 -5 -18 -10 -21 -7 -4 -7
-13 0 -24 8 -17 1 -19 -90 -25 -91 -6 -211 -25 -252 -41 -16 -6 -17 -3 -12 26
4 19 13 39 20 45 18 14 107 33 199 43 125 12 145 12 145 -3z m-120 -368 c-1
-272 -1 -273 -24 -302 -24 -28 -24 -29 -35 -7 -14 25 -34 27 -55 5 -15 -14
-16 9 -14 273 l3 288 40 6 c22 3 50 7 63 8 l22 1 0 -272z m120 195 c0 -43 -3
-168 -7 -279 l-6 -200 -26 -16 c-25 -14 -28 -13 -41 6 -13 18 -14 67 -12 294
l3 272 45 0 44 0 0 -77z m-271 -232 c-4 -275 -5 -289 -22 -279 -12 6 -23 6
-32 -2 -8 -7 -15 -7 -19 -1 -3 5 -9 130 -13 278 l-6 269 39 11 c21 6 43 11 48
12 4 0 7 -129 5 -288z m181 -286 c15 -18 41 -19 60 -2 19 17 -14 -36 -72 -115
-49 -67 -50 -68 -97 -68 l-46 0 -43 69 c-26 42 -40 75 -36 85 8 20 20 21 28 1
9 -23 42 -18 65 11 l21 26 19 -23 20 -24 28 28 c32 31 36 32 53 12z m-100
-230 c-12 -15 -30 -12 -30 6 0 5 10 9 21 9 18 0 19 -2 9 -15z"/>
<path d="M4598 2083 c-37 -9 -16 -21 45 -26 34 -2 73 -8 86 -12 18 -6 23 -5
19 6 -9 27 -98 46 -150 32z"/>
<path d="M4601 1920 c-84 -13 -141 -31 -141 -46 0 -15 25 -12 80 8 14 5 66 12
115 15 106 6 130 11 100 23 -24 10 -82 10 -154 0z"/>
<path d="M3696 2108 c-24 -34 -21 -123 4 -148 62 -62 140 44 94 130 -24 45
-73 54 -98 18z m68 -20 c28 -40 11 -118 -26 -118 -36 0 -48 89 -17 127 16 18
25 16 43 -9z"/>
<path d="M5199 2090 c-13 -39 -19 -44 -60 -56 -32 -10 -59 -28 -88 -60 -54
-57 -71 -99 -71 -170 0 -52 3 -59 38 -94 26 -26 50 -40 80 -45 23 -4 42 -9 42
-12 0 -19 -66 -225 -81 -256 -19 -36 -18 -64 1 -52 16 10 46 88 81 205 48 162
31 159 357 64 162 -47 261 -80 267 -91 6 -8 20 -28 32 -43 l22 -27 -54 -164
c-55 -163 -63 -199 -46 -199 5 0 35 78 67 173 l57 173 53 -4 c116 -10 194 66
194 190 0 55 -4 72 -29 108 -25 37 -27 47 -19 74 20 62 17 68 -52 103 -36 18
-128 49 -205 69 -77 19 -215 60 -306 89 -92 30 -189 57 -217 61 l-49 6 -14
-42z m284 -56 c93 -30 218 -67 276 -81 113 -27 201 -57 241 -82 14 -8 26 -16
28 -16 3 -2 -19 -65 -23 -65 -1 0 -23 11 -47 25 -25 14 -121 45 -214 69 -184
48 -256 71 -381 122 -45 19 -96 34 -112 34 -32 0 -38 11 -25 45 10 24 52 16
257 -51z m-188 -33 c217 -81 301 -108 450 -147 199 -52 266 -86 303 -156 19
-34 23 -53 18 -92 -10 -91 -70 -146 -159 -146 -114 0 -154 130 -71 230 44 52
125 37 143 -27 6 -20 4 -40 -5 -61 -16 -39 -19 -40 -20 -2 -2 53 -38 74 -85
50 -26 -14 -25 -69 1 -98 46 -50 127 -11 137 65 12 93 -33 133 -150 133 -201
0 -439 72 -561 169 -51 41 -80 47 -122 27 -91 -43 -100 -186 -12 -186 41 0 68
25 68 65 0 53 -43 73 -82 38 -31 -28 -21 6 11 38 36 36 70 37 108 5 23 -20 28
-32 28 -73 0 -56 -22 -91 -76 -122 -74 -42 -169 -18 -205 51 -14 27 -15 40 -5
80 32 142 152 208 286 159z m-96 -192 c-11 -21 -49 -26 -49 -6 0 7 7 23 17 36
15 23 17 23 29 6 9 -13 10 -23 3 -36z m166 8 c-4 -12 -10 -46 -12 -75 l-5 -53
-31 7 c-18 3 -33 7 -35 9 -1 1 9 24 23 50 14 26 25 61 25 77 0 26 2 28 21 17
16 -8 19 -16 14 -32z m66 -7 c19 -11 18 -13 -11 -55 -38 -56 -55 -58 -45 -8 7
39 22 73 31 73 3 0 14 -5 25 -10z m69 -24 c0 -2 -7 -23 -15 -47 -9 -24 -13
-54 -10 -67 5 -19 2 -23 -12 -18 -10 3 -30 8 -45 12 -16 3 -28 7 -28 9 0 1 16
20 35 41 19 21 37 46 41 56 4 15 34 27 34 14z m58 -22 c29 -8 28 -35 -4 -73
-46 -55 -66 -37 -42 40 12 42 12 42 46 33z m76 -23 c4 -6 -12 -113 -19 -128
-1 -1 -18 2 -39 8 l-37 10 30 35 c17 19 34 46 37 59 6 25 18 32 28 16z m78
-11 c14 0 1 -47 -24 -87 -24 -40 -38 -42 -38 -7 0 47 22 105 38 99 7 -3 18 -5
24 -5z m91 -6 c12 -4 10 -13 -9 -52 -13 -26 -26 -60 -29 -75 -5 -26 -8 -28
-38 -22 -18 4 -33 8 -35 10 -1 1 11 28 28 60 16 31 30 63 30 71 0 14 27 18 53
8z m122 -124 c0 -29 -38 -41 -48 -16 -10 26 4 47 27 44 15 -2 21 -10 21 -28z"/>
<path d="M2397 2103 c-4 -3 -7 -25 -7 -48 0 -24 -3 -57 -6 -75 -6 -26 -10 -31
-28 -26 -65 19 -76 19 -76 0 0 -11 12 -37 26 -57 14 -21 24 -40 22 -42 -1 -1
-27 -13 -55 -25 -29 -12 -53 -28 -53 -36 0 -14 43 -28 119 -40 l43 -7 -7 -63
c-4 -35 -3 -64 2 -64 4 0 28 23 53 51 l46 51 42 -21 c68 -34 74 -31 70 41 l-3
61 35 9 c19 5 39 14 44 18 14 14 -13 41 -62 62 -36 16 -43 23 -39 41 16 66 19
97 8 97 -6 0 -29 -11 -51 -25 l-40 -25 -20 32 c-11 18 -25 48 -31 66 -10 31
-19 38 -32 25z m57 -129 c22 -26 23 -26 54 -10 35 18 35 18 23 -37 -8 -32 -6
-39 7 -44 10 -3 33 -13 52 -21 l35 -14 -35 -10 c-49 -13 -52 -19 -41 -69 5
-24 8 -45 6 -47 -2 -2 -22 6 -46 19 l-43 22 -28 -34 -28 -33 0 37 c0 41 -2 42
-72 52 -27 3 -48 10 -48 15 0 4 20 16 45 26 25 9 45 22 45 27 0 6 -15 26 -32
45 l-33 35 30 -8 c55 -14 59 -12 69 33 5 23 11 42 13 42 2 0 14 -12 27 -26z"/>
<path d="M744 2061 c-127 -93 -195 -233 -129 -263 56 -25 182 59 229 154 28
56 33 107 14 126 -21 21 -73 14 -114 -17z m96 -26 c0 -63 -71 -159 -143 -194
-78 -38 -102 -19 -66 51 59 115 209 218 209 143z"/>
<path d="M3005 2009 c-80 -49 -94 -62 -78 -72 11 -7 175 95 181 111 7 23 -23
11 -103 -39z"/>
<path d="M947 2007 c-10 -27 -189 -227 -203 -227 -25 0 -15 -18 22 -40 39 -24
56 -20 31 7 -14 17 -12 22 29 68 l45 50 -3 -82 -3 -81 33 -18 c40 -21 53 -12
24 19 -18 19 -22 35 -22 84 l0 61 49 -1 c31 -1 59 6 75 17 31 20 61 77 53 100
-16 40 -118 74 -130 43z m83 -35 c29 -24 20 -56 -23 -83 -38 -22 -66 -24 -92
-5 -17 12 -16 16 20 60 43 50 61 56 95 28z"/>
<path d="M3366 1968 c-9 -12 -16 -43 -16 -68 0 -123 111 -119 114 5 2 73 -62
114 -98 63z m65 -29 c22 -41 -13 -128 -39 -97 -18 22 -24 63 -13 91 13 32 36
35 52 6z"/>
<path d="M6360 1981 c0 -11 29 -18 130 -31 96 -12 270 -13 270 -1 0 5 -39 12
-87 15 -49 3 -129 11 -180 16 -114 12 -133 12 -133 1z"/>
<path d="M4140 1970 c0 -5 34 -38 75 -72 41 -34 75 -65 75 -68 -1 -3 -39 -50
-85 -105 -47 -55 -85 -103 -85 -107 0 -5 6 -8 13 -8 19 0 187 205 187 228 0
12 -156 142 -171 142 -5 0 -9 -4 -9 -10z"/>
<path d="M3270 1925 c-12 -13 -26 -22 -31 -20 -17 11 -19 -17 -4 -67 8 -28 15
-65 15 -81 0 -18 4 -27 13 -24 8 3 11 25 8 77 -3 71 -2 75 24 96 15 12 24 27
21 33 -11 16 -20 14 -46 -14z"/>
<path d="M95 1930 c-15 -24 -36 -113 -28 -120 10 -10 117 6 145 21 19 10 19
11 1 31 -22 25 -93 78 -104 78 -4 0 -11 -4 -14 -10z m59 -51 c31 -25 21 -39
-26 -39 -30 0 -31 2 -22 38 8 27 14 28 48 1z"/>
<path d="M6360 1926 c0 -2 18 -42 41 -89 l40 -85 -50 -101 c-52 -103 -58 -121
-41 -121 5 0 31 41 56 92 51 102 48 102 90 -4 26 -64 37 -78 47 -60 3 4 -12
48 -33 99 l-37 92 38 68 c21 37 39 74 39 81 0 28 -21 8 -52 -48 -18 -33 -35
-60 -39 -60 -3 0 -20 32 -37 70 -19 43 -37 70 -46 70 -9 0 -16 -2 -16 -4z"/>
<path d="M1147 1914 c-3 -3 -1 -14 5 -24 9 -14 3 -29 -37 -81 -27 -35 -70 -89
-97 -120 -26 -31 -48 -59 -48 -61 0 -3 25 -22 56 -42 56 -37 79 -40 90 -11 8
21 -2 31 -18 18 -9 -8 -24 -4 -51 14 l-38 24 26 32 c15 18 56 70 91 117 48 62
71 84 85 82 31 -5 22 14 -17 37 -40 24 -38 23 -47 15z"/>
<path d="M6597 1913 c-4 -3 2 -20 12 -37 10 -17 32 -56 49 -86 l30 -55 -43
-70 c-42 -67 -55 -105 -36 -105 5 0 26 29 46 65 20 36 40 65 44 65 5 0 20 -27
35 -60 26 -57 46 -77 46 -46 0 8 -14 44 -30 82 l-31 67 52 79 c29 43 49 81 46
84 -10 10 -26 -6 -67 -67 -23 -32 -43 -59 -45 -59 -2 0 -22 34 -45 75 -40 72
-49 82 -63 68z"/>
<path d="M2974 1887 c-3 -10 -2 -41 4 -70 9 -47 8 -54 -10 -74 -26 -28 -34
-23 -42 28 -8 48 -22 79 -37 79 -7 0 -8 -10 -4 -27 4 -16 20 -86 34 -158 14
-71 31 -129 36 -127 11 3 11 10 0 95 -7 50 -5 60 11 72 10 8 22 15 25 15 3 0
11 -28 17 -61 12 -64 17 -77 29 -66 8 8 -34 274 -47 297 -8 13 -10 13 -16 -3z"/>
<path d="M4011 1859 c-110 -13 -215 -45 -316 -95 -88 -43 -215 -135 -215 -154
0 -19 22 -10 68 29 148 121 339 190 547 197 65 2 111 7 113 13 2 6 -5 11 -16
11 -10 0 -39 2 -63 4 -24 3 -77 0 -118 -5z"/>
<path d="M3100 1840 c-54 -54 -28 -180 36 -180 23 0 74 60 74 87 0 24 -18 13
-40 -22 -24 -39 -44 -44 -60 -16 -16 31 -12 48 15 55 13 3 29 15 35 26 25 47
-24 86 -60 50z m38 -27 c-2 -10 -11 -19 -21 -21 -16 -3 -17 -1 -7 17 13 25 33
28 28 4z"/>
<path d="M1840 1811 c0 -6 16 -22 36 -37 47 -37 155 -172 194 -245 17 -33 35
-59 41 -59 14 0 11 17 -10 58 -68 131 -261 340 -261 283z"/>
<path d="M1294 1788 c-7 -11 13 -28 34 -28 7 0 -22 -45 -64 -100 -48 -62 -84
-100 -96 -100 -32 0 -20 -20 25 -40 51 -24 86 -25 135 -4 103 43 159 175 98
233 -28 26 -123 54 -132 39z m124 -104 c7 -91 -109 -180 -192 -148 -18 7 -15
11 92 147 51 65 55 67 75 54 15 -10 23 -27 25 -53z"/>
<path d="M4005 1760 c-145 -36 -245 -79 -326 -140 -57 -43 -119 -112 -119
-133 0 -20 28 -2 53 33 63 89 212 167 407 215 109 26 119 30 104 44 -5 5 -56
-3 -119 -19z"/>
<path d="M422 1671 c-31 -107 -38 -141 -27 -141 4 0 20 7 37 16 l30 16 -7 -41
c-6 -36 -4 -41 12 -41 20 1 204 138 211 158 8 25 -22 10 -105 -54 l-86 -67 6
40 c8 50 2 56 -34 37 -16 -8 -29 -11 -29 -6 0 4 11 46 25 93 29 99 29 99 12
99 -9 0 -25 -40 -45 -109z"/>
<path d="M2687 1613 c-16 -28 -38 -116 -31 -123 10 -10 140 12 154 26 13 13 3
25 -53 67 -49 38 -62 43 -70 30z m71 -84 c-19 -12 -68 -11 -68 2 0 6 5 19 11
30 10 19 10 19 40 -2 24 -17 28 -24 17 -30z"/>
<path d="M5225 1608 c-2 -7 -13 -47 -24 -89 -12 -41 -32 -104 -46 -139 -33
-83 -16 -108 19 -29 47 106 87 269 67 269 -6 0 -13 -6 -16 -12z"/>
<path d="M124 1595 c-45 -32 -2 -266 72 -392 15 -27 20 -44 14 -48 -12 -8 34
-98 80 -156 16 -20 28 -45 28 -55 -2 -19 197 -334 260 -412 47 -59 105 -95
154 -98 38 -2 41 -4 96 -90 32 -49 62 -100 69 -114 22 -50 74 -113 85 -102 6
6 -1 24 -21 53 -21 29 -28 46 -21 53 20 20 9 47 -56 145 l-65 98 9 54 c6 29 8
64 6 78 -12 80 -18 101 -44 157 -32 70 -144 244 -187 291 -15 16 -39 52 -51
79 -42 88 -124 215 -135 211 -6 -2 -23 22 -38 53 -43 90 -111 157 -200 194
-31 13 -39 13 -55 1z m92 -53 c33 -21 72 -54 88 -73 33 -39 76 -125 76 -153 0
-13 5 -17 20 -13 15 4 28 -8 58 -57 56 -88 85 -146 92 -186 4 -25 10 -34 23
-32 29 5 196 -247 169 -256 -14 -4 -16 -82 -2 -82 5 0 12 17 16 37 l7 37 20
-50 c22 -55 29 -178 11 -208 -9 -15 -27 8 -126 170 -63 104 -120 199 -127 212
-13 25 -31 29 -31 7 0 -8 56 -107 125 -219 69 -112 125 -207 125 -210 0 -17
-53 -2 -96 26 -40 27 -73 68 -176 223 -70 105 -127 193 -128 196 0 4 11 10 25
13 28 7 34 26 8 26 -22 0 -93 75 -125 133 -15 26 -24 47 -20 47 4 0 13 4 21 9
11 7 7 16 -20 43 -66 66 -139 314 -113 382 9 22 13 21 80 -22z"/>
<path d="M265 1393 c4 -16 7 -40 6 -55 -1 -19 4 -28 14 -28 18 0 21 60 5 91
-16 29 -33 24 -25 -8z"/>
<path d="M190 1332 c0 -10 63 -72 73 -72 14 0 7 19 -19 49 -24 29 -54 41 -54
23z"/>
<path d="M478 1085 c-1 -19 -2 -42 -2 -50 -2 -26 17 -21 27 8 10 31 2 77 -13
77 -6 0 -11 -16 -12 -35z"/>
<path d="M310 1067 c0 -14 40 -37 65 -37 26 0 16 16 -20 33 -43 20 -45 21 -45
4z"/>
<path d="M647 903 c-11 -18 -11 -87 -1 -90 20 -7 34 80 15 92 -5 3 -12 2 -14
-2z"/>
<path d="M440 830 c0 -10 32 -30 49 -30 17 0 13 27 -5 34 -23 9 -44 7 -44 -4z"/>
<path d="M545 680 c-8 -13 52 -80 72 -80 22 0 15 14 -26 54 -26 26 -41 34 -46
26z"/>
<path d="M705 1562 c-27 -26 -72 -66 -99 -88 -60 -51 -55 -81 5 -33 38 30 40
31 65 14 17 -11 23 -22 19 -33 -16 -43 -17 -72 -2 -72 9 0 17 13 21 35 4 19
11 35 16 35 5 0 9 12 8 28 0 15 10 54 21 86 12 33 21 63 21 68 0 19 -28 4 -75
-40z m19 -49 c-9 -39 -13 -43 -29 -36 -21 7 -19 22 8 44 29 24 29 24 21 -8z"/>
<path d="M5270 1441 c-27 -87 -50 -161 -50 -165 0 -3 6 -6 13 -6 9 0 31 55 60
149 48 152 54 181 37 181 -5 0 -32 -71 -60 -159z"/>
<path d="M844 1539 c-3 -5 -3 -13 0 -17 3 -5 -20 -48 -50 -97 -58 -95 -61
-105 -41 -105 7 0 26 22 42 49 31 55 45 57 46 8 0 -40 30 -119 47 -125 16 -5
15 22 -2 56 -13 25 -20 60 -17 90 1 6 14 12 30 12 40 0 84 38 84 74 0 29 -26
54 -58 57 -59 6 -76 5 -81 -2z m85 -30 c38 -13 38 -33 -1 -62 -22 -16 -33 -18
-58 -11 l-30 9 25 38 c14 20 27 37 29 37 2 0 17 -5 35 -11z"/>
<path d="M5385 1493 c-9 -32 -30 -99 -46 -148 -33 -103 -34 -105 -16 -105 14
0 82 199 94 274 9 59 -15 43 -32 -21z"/>
<path d="M6643 1540 c-75 -10 -254 -57 -267 -70 -22 -22 8 -22 81 0 43 13 129
31 191 39 62 9 114 21 115 26 3 13 -44 15 -120 5z"/>
<path d="M5470 1390 c-48 -136 -56 -181 -31 -154 14 14 110 287 105 296 -13
21 -25 -3 -74 -142z"/>
<path d="M5616 1489 c-2 -8 -24 -71 -47 -141 -24 -69 -40 -130 -36 -134 13
-13 23 7 68 138 35 100 41 130 32 139 -10 10 -13 9 -17 -2z"/>
<path d="M7755 1489 c-38 -11 -55 -34 -55 -76 0 -74 86 -110 135 -57 61 66 6
156 -80 133z m63 -41 c26 -26 0 -88 -36 -88 -23 0 -52 30 -52 55 0 28 18 45
50 45 14 0 31 -5 38 -12z"/>
<path d="M5666 1333 c-26 -76 -50 -146 -53 -155 -3 -12 0 -18 10 -18 8 0 17 8
20 18 3 9 24 70 46 136 23 65 41 127 41 137 0 46 -20 9 -64 -118z"/>
<path d="M3025 1388 c-44 -4 -138 -21 -210 -36 l-130 -27 3 -110 c7 -220 -24
-630 -64 -855 -5 -32 -3 -37 19 -47 14 -7 34 -24 43 -38 15 -23 15 -31 4 -66
-7 -21 -11 -41 -9 -44 3 -2 92 10 199 26 251 39 325 38 394 -9 48 -31 52 -32
160 -32 l111 0 25 30 c56 67 214 65 487 -9 98 -27 181 -46 186 -44 4 2 7 29 7
58 0 45 5 60 28 87 29 33 29 35 46 263 22 305 36 544 36 630 l0 71 -47 18
c-213 81 -296 106 -397 116 -135 14 -216 1 -307 -46 l-67 -35 -48 24 c-77 39
-175 65 -285 77 -56 5 -102 9 -103 9 0 -1 -37 -6 -81 -11z m317 -47 c42 -11
103 -33 135 -49 l58 -29 -3 -54 c-10 -186 -85 -869 -98 -890 -2 -4 -28 6 -56
21 -143 77 -369 88 -642 31 -47 -10 -86 -15 -86 -11 0 4 5 32 10 61 26 134 43
346 49 604 l6 279 105 23 c58 12 132 27 165 32 89 15 267 6 357 -18z m708 -20
c36 -11 116 -40 177 -63 l113 -43 -5 -75 c-3 -41 -10 -163 -16 -270 -10 -197
-37 -541 -42 -546 -1 -1 -49 11 -106 27 -171 48 -250 61 -376 62 -131 2 -204
-14 -282 -59 -23 -13 -44 -24 -46 -24 -2 0 -1 21 4 46 14 74 67 555 80 724 7
85 17 161 22 168 13 17 79 51 132 69 60 20 262 11 345 -16z m-40 -955 c41 -10
95 -24 120 -31 25 -8 64 -19 87 -25 l42 -11 -19 -32 c-11 -18 -20 -40 -20 -49
0 -15 -4 -16 -26 -8 -34 13 -53 2 -29 -17 11 -7 27 -13 37 -13 10 0 18 -4 18
-10 0 -15 -10 -13 -174 32 -146 41 -156 43 -298 43 -137 0 -148 -1 -177 -23
-22 -16 -31 -19 -31 -9 0 8 23 26 51 42 35 18 48 30 41 37 -7 7 -28 1 -66 -20
-60 -34 -86 -27 -36 9 20 15 27 26 20 33 -7 7 -20 3 -40 -12 -39 -29 -49 -28
-21 2 22 24 87 54 161 75 50 15 272 6 360 -13z m-787 0 c72 -14 169 -54 182
-76 10 -16 -12 -12 -47 10 -18 11 -39 20 -45 20 -25 0 -13 -19 22 -36 57 -27
34 -26 -39 1 -72 27 -100 31 -94 14 2 -6 30 -20 62 -30 32 -10 64 -23 70 -30
8 -9 7 -11 -4 -7 -98 34 -132 41 -139 30 -5 -8 -39 -14 -87 -17 -71 -3 -323
-39 -366 -51 -28 -8 -21 11 8 24 27 13 24 34 -4 30 -11 -2 -18 5 -20 19 -3 22
1 25 101 49 15 3 27 10 27 15 0 13 -37 11 -99 -6 -52 -14 -82 -11 -64 5 7 7
104 25 223 43 64 10 246 6 313 -7z m264 -138 c18 -18 33 -37 33 -42 0 -7 -33
-10 -96 -8 l-96 3 19 21 c23 26 74 58 93 58 8 0 29 -14 47 -32z m-182 -18 c3
-5 2 -10 -4 -10 -5 0 -13 5 -16 10 -3 6 -2 10 4 10 5 0 13 -4 16 -10z"/>
<path d="M3666 361 c-16 -3 -31 -12 -34 -20 -4 -11 3 -12 29 -8 19 3 55 9 82
13 26 3 47 10 47 15 0 10 -79 10 -124 0z"/>
<path d="M4010 315 c0 -8 8 -15 18 -15 9 0 54 -13 100 -29 58 -20 82 -25 82
-16 0 14 -43 33 -129 59 -67 20 -71 20 -71 1z"/>
<path d="M3830 302 c0 -7 12 -14 28 -18 15 -3 53 -13 86 -21 79 -19 100 -1 25
22 -77 23 -139 30 -139 17z"/>
<path d="M2995 350 c-8 -12 -4 -13 65 -10 81 3 88 20 8 20 -37 0 -70 -4 -73
-10z"/>
<path d="M2911 287 c-36 -7 -66 -18 -69 -24 -4 -15 2 -15 92 0 37 7 68 17 68
22 -1 14 -18 15 -91 2z"/>
<path d="M6091 1367 c-24 -29 -81 -190 -81 -229 0 -33 6 -46 33 -72 27 -25
560 -301 620 -320 15 -5 17 -21 17 -138 0 -73 4 -138 8 -145 4 -7 37 -16 72
-20 l64 -8 27 -72 c61 -165 182 -260 344 -271 121 -7 255 54 319 147 31 44 75
147 76 174 0 26 46 22 64 -5 7 -13 14 -50 15 -83 2 -101 21 -177 52 -207 26
-27 32 -28 126 -28 130 0 138 6 138 96 0 56 -3 69 -20 78 -44 24 -103 92 -114
131 -6 22 -11 102 -11 178 0 169 -11 218 -60 267 -43 43 -109 64 -253 80 -92
10 -100 12 -132 44 -76 76 -170 124 -345 178 -183 56 -477 136 -615 168 -77
17 -169 40 -204 51 -74 22 -124 24 -140 6z m76 -29 c-66 -163 -88 -231 -79
-240 12 -12 18 1 72 147 18 50 34 91 35 92 6 11 740 -185 913 -243 117 -39
272 -127 272 -155 0 -5 -127 -9 -304 -9 -298 0 -350 -5 -368 -33 -4 -7 -10
-38 -14 -69 -4 -32 -10 -58 -14 -58 -19 0 -608 300 -624 319 -29 33 -25 78 19
174 35 81 40 87 68 87 19 0 27 -4 24 -12z m963 -452 c-74 -15 -137 -54 -197
-120 -67 -73 -94 -134 -102 -226 l-6 -75 -35 3 c-19 1 -46 5 -59 8 l-23 5 5
177 c6 196 11 229 36 235 9 3 111 5 226 5 186 0 204 -1 155 -12z m513 -10 c85
-21 119 -44 147 -101 23 -47 25 -60 25 -215 1 -185 11 -221 77 -274 18 -15 41
-34 51 -42 19 -16 25 -108 6 -119 -22 -14 -185 -11 -202 4 -23 19 -45 98 -52
189 -9 117 -10 120 -53 133 l-38 11 -11 83 c-15 108 -49 179 -118 244 -59 56
-119 86 -199 101 -37 7 0 8 129 5 107 -3 203 -10 238 -19z m-281 -43 c197 -88
266 -350 145 -551 -100 -167 -315 -211 -489 -100 -138 87 -204 311 -135 461
47 102 150 192 251 218 54 14 165 1 228 -28z"/>
<path d="M6424 1225 c-35 -90 -80 -252 -73 -259 5 -5 10 -8 12 -5 7 7 87 254
87 267 0 17 -19 15 -26 -3z"/>
<path d="M6497 1223 c-7 -11 -65 -194 -69 -217 -1 -10 2 -21 8 -23 10 -3 84
205 84 236 0 12 -16 15 -23 4z"/>
<path d="M6776 1149 c-21 -59 -36 -143 -28 -151 13 -13 16 -6 37 75 14 50 15
71 7 79 -8 8 -13 8 -16 -3z"/>
<path d="M6845 1148 c-32 -87 -44 -133 -36 -141 5 -5 11 -4 15 2 11 17 46 123
46 138 0 17 -19 17 -25 1z"/>
<path d="M7062 1035 c-14 -31 -16 -65 -3 -65 13 0 18 9 26 53 8 43 -6 50 -23
12z"/>
<path d="M7112 1015 c-15 -32 -16 -68 -2 -60 9 5 40 69 40 81 0 2 -6 4 -13 4
-8 0 -19 -11 -25 -25z"/>
<path d="M6750 756 c0 -12 12 -16 51 -16 66 0 62 24 -4 28 -37 2 -47 0 -47
-12z"/>
<path d="M6747 604 c-15 -15 -6 -24 24 -24 20 0 29 4 27 13 -5 14 -40 21 -51
11z"/>
<path d="M7557 743 c-18 -18 0 -23 78 -23 69 0 85 3 85 15 0 12 -15 15 -78 15
-43 0 -82 -3 -85 -7z"/>
<path d="M7615 601 c-3 -6 5 -13 18 -16 34 -9 102 -2 100 10 -4 13 -110 19
-118 6z"/>
<path d="M7715 442 c-10 -10 -5 -21 14 -27 20 -6 51 3 51 15 0 9 -58 19 -65
12z"/>
<path d="M7777 263 c-32 -3 -47 -8 -44 -16 8 -26 117 -18 117 8 0 8 -6 14 -12
13 -7 -1 -35 -3 -61 -5z"/>
<path d="M7135 841 c-174 -45 -286 -226 -254 -406 21 -119 95 -218 199 -268
36 -17 63 -22 135 -22 78 0 97 4 141 27 65 34 119 95 157 177 79 170 12 384
-145 460 -67 33 -174 48 -233 32z m119 -68 c-15 -102 -32 -177 -37 -163 -8 23
-47 188 -47 200 0 5 21 10 46 10 l45 0 -7 -47z m-89 -74 c14 -61 24 -113 22
-115 -2 -3 -23 26 -45 63 -23 37 -51 82 -62 100 l-21 32 28 15 c15 8 33 15 40
16 6 0 23 -48 38 -111z m158 99 c15 -12 13 -20 -20 -97 -20 -46 -39 -79 -40
-74 -2 6 3 48 11 93 9 45 16 84 16 86 0 8 17 4 33 -8z m117 -77 c0 -8 -166
-181 -174 -181 -4 0 73 180 95 223 9 16 12 15 44 -9 19 -15 35 -29 35 -33z
m-360 -28 c103 -163 101 -153 24 -87 -38 33 -83 69 -99 81 l-30 21 24 26 c14
14 28 26 32 26 3 0 26 -30 49 -67z m396 -25 c7 -25 -5 -36 -81 -75 l-49 -25
53 61 c29 33 57 61 61 61 5 0 12 -10 16 -22z m-470 -17 c21 -16 64 -53 94 -81
54 -50 54 -51 24 -46 -17 3 -70 23 -118 45 l-86 40 17 35 c9 20 20 36 23 36 4
0 25 -13 46 -29z m506 -81 c3 -22 -2 -25 -72 -41 -41 -10 -95 -20 -120 -23
-42 -6 -38 -2 65 51 65 34 113 54 117 48 3 -5 8 -21 10 -35z m-405 -76 c-8 -7
-199 -9 -203 -2 -3 5 -3 26 1 47 l6 39 99 -41 c55 -23 98 -42 97 -43z m413 -4
l0 -30 -122 1 c-86 1 -114 4 -93 10 27 7 190 45 208 48 4 0 7 -12 7 -29z
m-482 -58 c21 -6 16 -11 -40 -44 l-63 -36 -12 26 c-19 43 -15 51 25 55 56 6
65 6 90 -1z m37 -82 c-44 -44 -83 -79 -88 -77 -16 5 -47 64 -34 64 6 0 48 21
92 46 44 26 87 47 95 47 8 0 -21 -36 -65 -80z m435 66 c0 -23 -12 -24 -60 -5
l-45 18 53 0 c39 1 52 -3 52 -13z m-249 -121 c14 -63 24 -117 21 -120 -3 -3
-25 -5 -50 -5 l-45 0 6 38 c3 20 11 76 18 125 7 48 15 85 18 81 3 -3 18 -57
32 -119z m163 95 c36 -12 66 -23 66 -25 0 -2 -5 -15 -11 -29 l-12 -25 -58 46
c-79 62 -80 62 15 33z m-42 -49 c32 -25 58 -51 58 -57 0 -12 -38 -50 -44 -43
-7 8 -74 116 -85 138 -16 29 -7 25 71 -38z m-272 -38 c-53 -98 -53 -98 -75
-73 -19 20 -18 21 45 85 36 36 66 65 68 65 2 0 -15 -35 -38 -77z m65 -28 c-8
-54 -16 -99 -18 -101 -8 -9 -68 19 -65 30 7 24 89 178 94 174 2 -3 -3 -49 -11
-103z m153 23 c23 -37 42 -72 42 -77 0 -11 -32 -31 -48 -31 -4 0 -16 35 -26
78 -10 42 -20 86 -23 97 -8 29 7 11 55 -67z"/>
<path d="M7186 1341 c-9 -13 -13 -12 54 -15 77 -3 148 -39 260 -131 52 -43
122 -91 155 -106 33 -16 52 -29 42 -29 -11 0 -17 -5 -14 -12 6 -18 105 -16
141 2 44 22 45 40 1 40 -39 0 -87 21 -121 52 -17 15 -24 16 -30 7 -4 -8 4 -21
22 -36 16 -12 25 -23 21 -23 -23 0 -116 58 -198 124 -127 102 -176 128 -259
134 -44 3 -70 1 -74 -7z"/>
<path d="M2311 1274 c-38 -48 -25 -105 30 -134 44 -24 109 25 109 82 0 70 -97
106 -139 52z m90 -14 c29 -16 25 -65 -6 -86 -23 -15 -27 -15 -50 0 -17 11 -25
26 -25 44 0 47 36 66 81 42z"/>
<path d="M1985 1245 c-219 -71 -506 -73 -750 -5 -76 21 -79 21 -92 4 -22 -31
-35 -96 -29 -147 7 -62 44 -131 73 -135 26 -4 31 -26 39 -170 5 -97 -14 -303
-29 -319 -3 -2 -14 0 -26 6 -17 10 -24 6 -45 -21 -36 -47 -48 -85 -47 -150 0
-62 25 -131 58 -160 15 -14 26 -16 54 -8 191 52 593 62 788 19 41 -9 47 -8 70
16 23 22 26 35 29 104 5 100 -14 147 -69 170 -37 16 -38 17 -44 86 -6 65 8
289 24 380 6 38 8 40 39 37 31 -3 34 0 58 53 18 38 28 80 31 133 5 69 3 80
-17 105 -25 32 -25 32 -115 2z m93 -17 c19 -19 14 -45 -10 -52 -13 -3 -51 -6
-86 -6 -47 0 -63 -3 -59 -12 3 -9 29 -13 85 -13 79 1 82 0 82 -22 0 -30 -23
-39 -66 -25 -23 7 -36 7 -40 0 -9 -14 11 -25 57 -32 l39 -6 -15 -37 c-9 -20
-17 -38 -19 -40 -1 -1 -58 9 -127 24 -112 25 -143 27 -329 27 -175 0 -220 -3
-305 -22 -94 -21 -101 -21 -113 -5 -17 24 -32 81 -32 126 l0 37 43 -6 c23 -4
46 -7 51 -8 5 0 10 4 12 10 3 5 -15 14 -38 20 -30 6 -44 15 -46 28 -3 16 0 18
19 12 89 -26 190 -48 252 -56 171 -22 396 -4 547 44 92 30 84 28 98 14z m-225
-237 c60 -11 110 -21 112 -23 2 -2 -3 -46 -11 -98 -8 -53 -14 -169 -14 -262
l0 -167 -53 -20 c-85 -31 -199 -51 -296 -51 -121 0 -217 19 -342 68 l-26 10
13 69 c15 76 20 283 9 386 -6 52 -4 68 6 72 101 37 430 45 602 16z m-632 -571
c118 -55 208 -73 364 -74 151 -1 200 8 329 56 l78 30 21 -20 20 -21 -37 -6
c-35 -7 -45 -18 -27 -29 4 -3 23 -1 41 4 19 5 34 9 35 7 1 -1 5 -14 9 -29 6
-25 4 -28 -21 -28 -37 0 -73 -10 -73 -21 0 -4 21 -9 47 -11 73 -5 66 -26 -9
-30 -75 -4 -80 -22 -8 -26 50 -3 60 -11 37 -30 -8 -7 -29 -7 -61 -1 -171 32
-500 28 -704 -9 -58 -11 -105 -15 -108 -10 -7 11 -7 10 29 26 15 6 27 16 27
22 0 13 -12 13 -47 -1 -23 -8 -30 -7 -40 7 -22 31 -15 43 27 46 55 4 55 22 0
28 -46 5 -59 21 -41 49 8 12 16 13 49 3 51 -15 135 -16 130 -1 -2 6 -24 13
-48 15 -24 3 -61 9 -82 15 l-38 10 15 29 c9 17 17 30 19 30 2 0 32 -13 67 -30z"/>
<path d="M1160 1111 c0 -12 56 -25 70 -16 6 3 8 11 5 16 -8 12 -75 12 -75 0z"/>
<path d="M1402 882 c-13 -15 -21 -22 -18 -15 9 17 -15 28 -25 12 -12 -19 -11
-56 1 -64 6 -4 17 -1 25 5 9 7 23 9 37 4 29 -10 48 -6 71 14 16 14 19 14 27 2
8 -12 15 -13 41 -3 22 9 38 9 50 2 20 -10 205 16 223 32 22 20 -10 21 -110 4
-89 -16 -107 -16 -114 -5 -7 11 -14 12 -34 2 -22 -10 -26 -9 -26 3 0 23 -27
18 -65 -11 -39 -30 -59 -25 -45 10 8 22 4 37 -9 35 -3 0 -16 -12 -29 -27z"/>
<path d="M1352 684 c3 -18 17 -19 231 -22 206 -3 227 -2 227 13 0 15 -19 16
-177 15 -98 0 -202 3 -231 6 -49 6 -54 5 -50 -12z"/>
<path d="M1380 504 c0 -33 2 -36 24 -30 13 3 31 9 40 12 10 4 16 1 16 -10 0
-13 11 -15 63 -11 34 3 107 7 162 9 55 3 108 8 118 11 31 13 6 27 -37 21 -22
-3 -95 -6 -161 -7 -107 -2 -120 -1 -123 15 -2 11 -9 15 -19 12 -8 -3 -26 -9
-39 -12 -19 -5 -23 -3 -18 10 4 11 1 16 -10 16 -12 0 -16 -10 -16 -36z"/>
<path d="M5317 968 c-37 -78 -70 -139 -73 -135 -3 3 -10 61 -15 129 -5 67 -14
127 -19 132 -9 9 -33 -38 -127 -244 -14 -30 -27 -49 -30 -42 -3 7 -13 61 -22
120 -9 58 -22 107 -27 109 -13 4 -53 -82 -95 -202 -33 -98 -33 -95 -16 -95 6
0 24 35 39 78 40 115 61 160 65 140 3 -9 12 -63 21 -119 10 -56 22 -104 28
-106 6 -2 39 59 74 134 35 76 67 142 71 146 3 5 10 -40 13 -100 8 -121 14
-163 25 -163 4 0 37 57 74 128 l67 127 0 -60 c0 -98 11 -165 26 -165 8 0 14 4
14 8 0 6 106 199 117 211 9 11 11 -8 3 -49 -19 -108 -22 -160 -8 -160 7 0 40
39 73 87 l60 87 5 -96 c3 -53 8 -99 12 -103 5 -6 63 58 126 140 l23 30 -6 -31
c-15 -77 -21 -175 -11 -181 5 -4 45 31 88 78 43 46 78 81 78 77 0 -4 -13 -41
-29 -82 -18 -45 -25 -78 -19 -82 13 -8 12 -11 57 109 41 106 48 137 34 137 -5
1 -47 -41 -95 -92 -47 -51 -88 -91 -91 -88 -2 3 2 39 9 80 26 144 27 150 17
150 -6 0 -37 -34 -69 -76 -106 -136 -96 -136 -91 -6 2 61 0 112 -5 112 -5 0
-37 -39 -71 -86 -38 -53 -63 -79 -65 -70 -2 9 1 47 7 86 13 83 14 120 3 120
-8 0 -68 -91 -128 -195 -35 -62 -38 -53 -32 102 3 77 1 113 -7 113 -5 0 -41
-64 -78 -142z"/>
<path d="M2273 893 l-39 -98 -99 -20 c-54 -12 -100 -26 -102 -32 -3 -7 22 -14
70 -18 41 -4 79 -10 85 -14 7 -4 -2 -37 -28 -96 -22 -49 -40 -93 -40 -97 0
-19 29 -3 118 64 l95 72 29 -17 c45 -26 51 -22 45 26 l-6 42 89 65 c82 60 108
90 78 90 -7 0 -53 -9 -103 -19 -49 -11 -90 -19 -91 -18 -1 1 -10 38 -20 81
-11 44 -25 81 -31 83 -6 2 -28 -40 -50 -94z m62 -51 c4 -24 13 -46 20 -48 7
-3 40 1 74 9 33 8 61 12 61 8 0 -3 -27 -26 -60 -49 -45 -33 -60 -50 -60 -68 0
-21 -3 -23 -19 -14 -16 8 -32 1 -92 -45 -40 -30 -74 -53 -76 -51 -2 2 8 29 22
61 30 67 29 87 -5 96 -27 7 -19 12 32 23 22 5 31 18 53 77 30 77 37 77 50 1z"/>
<path d="M6270 853 c0 -5 9 -35 19 -68 10 -33 21 -73 22 -89 3 -25 0 -30 -20
-31 -57 -4 -82 -96 -40 -149 38 -48 85 -23 91 49 l3 40 23 -44 c34 -63 49 -39
19 30 -14 30 -39 102 -57 162 -21 66 -38 107 -47 107 -7 0 -13 -3 -13 -7z m50
-247 c0 -67 -37 -115 -54 -70 -17 45 2 104 34 104 16 0 20 -7 20 -34z"/>
<path d="M6418 729 c-36 -20 -9 -89 34 -89 25 0 29 -26 7 -46 -13 -12 -16 -21
-9 -28 15 -15 50 23 50 55 0 23 -7 32 -35 43 -37 16 -42 25 -23 44 17 17 -2
34 -24 21z"/>
<path d="M4642 653 c-11 -43 -23 -90 -26 -105 -5 -23 -23 -36 -113 -80 -120
-60 -137 -78 -71 -78 24 0 67 -3 96 -6 l52 -7 0 -48 c0 -58 11 -62 56 -18 34
33 34 33 108 3 17 -7 18 -3 12 50 -8 57 -7 58 36 114 109 141 110 157 8 117
-35 -14 -69 -24 -74 -22 -6 2 -17 36 -26 77 -8 40 -20 75 -26 77 -7 2 -20 -28
-32 -74z m42 -73 c4 -29 12 -50 19 -50 7 0 36 9 65 20 62 24 62 19 -11 -68
-40 -49 -44 -57 -37 -88 8 -36 2 -41 -32 -23 -17 9 -25 6 -50 -18 l-30 -28 4
34 c3 38 -1 41 -97 57 l-40 7 81 38 82 38 13 65 c7 36 16 66 20 66 3 0 9 -22
13 -50z"/>
<path d="M5920 611 c0 -12 6 -21 16 -21 9 0 14 7 12 17 -5 25 -28 28 -28 4z"/>
<path d="M6088 603 c-25 -6 -38 -55 -27 -97 23 -85 128 -100 129 -19 0 40 -30
100 -56 112 -14 6 -26 10 -27 10 -1 -1 -10 -3 -19 -6z m53 -54 c25 -34 28 -69
7 -83 -25 -16 -61 22 -60 63 1 57 21 65 53 20z"/>
<path d="M5484 558 c-12 -5 -27 -20 -34 -33 -12 -23 -3 -51 82 -235 17 -36 37
-80 44 -97 14 -33 34 -44 34 -19 0 7 -14 45 -31 84 l-32 71 25 29 c37 44 51
86 43 128 -12 69 -72 101 -131 72z m86 -38 c33 -33 20 -112 -23 -148 -12 -10
-20 0 -46 58 -36 82 -35 74 -15 94 21 22 60 20 84 -4z"/>
<path d="M234 530 c-83 -22 -177 -66 -169 -80 4 -6 21 -2 43 9 45 23 178 64
191 59 6 -1 -7 -41 -28 -88 -22 -47 -37 -88 -35 -92 2 -3 34 6 71 22 80 33
170 56 179 47 4 -3 -8 -40 -26 -82 -19 -41 -31 -78 -27 -81 3 -3 51 2 107 11
56 9 104 14 107 11 3 -3 -17 -44 -46 -92 -28 -47 -49 -90 -46 -94 11 -18 225
66 225 87 0 9 -6 13 -12 10 -128 -55 -161 -68 -165 -63 -3 3 18 45 46 93 40
70 48 89 35 91 -8 2 -57 -3 -108 -12 -52 -9 -98 -16 -104 -16 -6 0 2 28 17 63
16 35 32 74 36 86 7 23 6 24 -44 17 -28 -4 -84 -18 -123 -31 -40 -13 -73 -23
-75 -21 -2 2 10 33 27 70 47 106 46 108 -76 76z"/>
<path d="M5966 522 c-8 -13 38 -145 52 -150 17 -5 15 17 -8 84 -22 63 -34 81
-44 66z"/>
<path d="M5870 465 c-7 -8 -16 -13 -20 -10 -5 3 -11 1 -15 -5 -7 -11 43 -158
57 -166 19 -12 19 5 2 59 -11 34 -14 65 -10 83 7 28 8 28 22 10 12 -17 14 -17
20 -3 15 40 -29 65 -56 32z"/>
<path d="M5035 419 c-10 -15 -8 -16 88 -23 70 -5 87 -3 87 8 0 23 -162 37
-175 15z"/>
<path d="M5724 398 c-30 -14 -58 -80 -50 -113 10 -37 50 -75 81 -75 16 0 38
12 56 29 31 31 39 71 14 71 -8 0 -15 -8 -15 -18 0 -29 -35 -55 -64 -48 -29 7
-56 46 -32 46 24 0 76 50 76 74 0 24 -17 46 -34 45 -6 0 -21 -5 -32 -11z m36
-31 c0 -18 -36 -50 -50 -45 -7 2 -3 14 10 31 23 29 40 35 40 14z"/>
<path d="M5085 350 c-95 -23 -175 -53 -175 -66 0 -18 2 -18 95 12 94 31 264
43 359 25 68 -13 99 0 50 20 -37 15 -277 21 -329 9z"/>
<path d="M6509 285 c-15 -8 -37 -38 -53 -70 -33 -70 -69 -91 -97 -56 -11 13
-19 31 -19 40 0 31 -30 61 -60 61 -33 0 -50 -15 -81 -70 -22 -38 -69 -66 -76
-44 -10 29 -45 74 -58 74 -9 0 -35 -18 -58 -40 -35 -33 -39 -42 -27 -50 11 -8
21 -3 41 20 31 36 47 38 59 6 5 -14 20 -32 33 -41 42 -27 83 0 129 85 24 42
48 36 68 -16 21 -58 38 -74 74 -74 44 0 63 16 99 86 23 42 39 60 55 62 31 5
47 -11 76 -73 13 -29 36 -61 49 -70 31 -20 82 -17 82 5 0 8 -6 14 -14 12 -39
-9 -62 9 -92 73 -21 44 -40 70 -59 80 -35 18 -38 18 -71 0z"/>
<path d="M5190 270 c-19 -4 -61 -13 -92 -20 -38 -7 -58 -16 -58 -26 0 -17 -11
-18 105 6 105 22 118 27 110 41 -7 10 -16 10 -65 -1z"/>
<path d="M4462 184 c-28 -25 -52 -50 -52 -55 0 -11 81 -48 124 -56 l29 -6 -6
62 c-7 61 -20 101 -35 101 -4 0 -31 -21 -60 -46z m58 -13 c0 -5 3 -23 6 -40 7
-32 7 -32 -22 -19 -46 19 -49 26 -23 47 26 22 39 26 39 12z"/>
</g>
</svg>
