<svg width="17" height="27" viewBox="0 0 17 27" fill="none" xmlns="http://www.w3.org/2000/svg">
<path d="M7.15992 16.942L4.50792 14.29L6.78592 11.842C7.42059 11.162 7.95326 10.5273 8.38392 9.938C8.81459 9.326 9.02992 8.77067 9.02992 8.272C9.02992 7.864 8.90526 7.51267 8.65592 7.218C8.42926 6.92333 8.04392 6.776 7.49992 6.776L3.35192 8.918L0.869922 3.648C1.30059 3.24 1.88992 2.798 2.63792 2.322C3.40859 1.846 4.31526 1.438 5.35792 1.098C6.42326 0.757999 7.60192 0.587998 8.89392 0.587998C11.2059 0.587998 12.9853 1.14333 14.2319 2.254C15.5013 3.36467 16.1359 4.79267 16.1359 6.538C16.1359 8.306 15.6826 9.84733 14.7759 11.162C13.8693 12.4767 12.6793 13.5873 11.2059 14.494L7.15992 16.942ZM7.15992 26.7L2.73992 22.28L7.15992 17.86L11.5799 22.28L7.15992 26.7Z" fill="#FFFEFE"/>
</svg>
