<svg width="197" height="32" viewBox="0 0 197 32" fill="none" xmlns="http://www.w3.org/2000/svg">
<path d="M3.17391 25L2.49391 20.716C1.85924 19.9227 1.36057 18.9027 0.997906 17.656C0.63524 16.4093 0.453906 14.8567 0.453906 12.998C0.453906 10.9807 0.70324 9.258 1.20191 7.83C1.72324 6.402 2.42591 5.22333 3.30991 4.294C4.19391 3.36467 5.19124 2.628 6.30191 2.084C7.41257 1.54 8.56857 1.166 9.76991 0.961999C10.9939 0.735333 12.1839 0.622 13.3399 0.622C14.7906 0.622 16.1959 0.803333 17.5559 1.166C18.9386 1.52866 20.1852 2.16333 21.2959 3.07C22.4066 3.97667 23.2906 5.23467 23.9479 6.844C24.6052 8.45333 24.9339 10.5047 24.9339 12.998C24.9339 14.29 24.8546 15.3893 24.6959 16.296C24.5599 17.18 24.3332 17.9507 24.0159 18.608C23.7212 19.2427 23.3359 19.8433 22.8599 20.41C22.4972 20.8407 22.0326 21.3053 21.4659 21.804C20.8992 22.28 20.3552 22.62 19.8339 22.824L19.9019 22.994L22.5539 23.334L28.5719 25.748L25.5119 31.256C25.5119 31.256 25.2739 31.1427 24.7979 30.916C24.3219 30.712 23.6986 30.4287 22.9279 30.066C22.1799 29.726 21.3526 29.352 20.4459 28.944C19.5619 28.536 18.6892 28.128 17.8279 27.72C16.9892 27.3347 16.2412 26.9833 15.5839 26.666C14.9492 26.3713 14.4959 26.1673 14.2239 26.054C13.4306 25.6687 12.6939 25.3967 12.0139 25.238C11.3339 25.0793 10.4386 25 9.32791 25H3.17391ZM9.93991 18.574H12.9659C14.5526 18.574 15.6292 18.0753 16.1959 17.078C16.7852 16.0807 17.0799 14.7207 17.0799 12.998C17.0799 11.23 16.7626 9.85867 16.1279 8.884C15.4932 7.90933 14.4506 7.422 12.9999 7.422C11.3452 7.422 10.1439 7.85267 9.39591 8.714C8.64791 9.55267 8.27391 10.9807 8.27391 12.998C8.27391 14.0633 8.37591 14.9927 8.57991 15.786C8.80657 16.5793 9.05591 17.214 9.32791 17.69C9.59991 18.1433 9.80391 18.438 9.93991 18.574ZM40.1614 25.34C36.1947 25.34 33.3387 24.5467 31.5934 22.96C29.8481 21.3507 28.9754 18.778 28.9754 15.242V6.402L29.0094 2.968L28.9754 0.928H36.5914V13.542C36.5914 14.5847 36.6707 15.514 36.8294 16.33C36.9881 17.1233 37.3281 17.7467 37.8494 18.2C38.3707 18.6533 39.1641 18.88 40.2294 18.88C41.3174 18.88 42.1221 18.676 42.6434 18.268C43.1647 17.86 43.5047 17.2593 43.6634 16.466C43.8221 15.6727 43.9014 14.698 43.9014 13.542V0.928H51.3474V15.242C51.3474 17.554 50.9734 19.458 50.2254 20.954C49.4774 22.4273 48.2874 23.5267 46.6554 24.252C45.0234 24.9773 42.8587 25.34 40.1614 25.34ZM55.421 25V6.368L55.081 2.968L55.421 0.928H62.935V25H55.421ZM66.6949 25L65.6409 22.96L76.2489 7.354H66.6949V0.928H86.2449V4.94L77.3709 18.574H78.4249L86.3129 17.894V25H66.6949ZM89.0738 25L88.0198 22.96L98.6278 7.354H89.0738V0.928H108.624V4.94L99.7498 18.574H100.804L108.692 17.894V25H89.0738ZM112.099 25V6.368L111.759 2.968L112.099 0.928H119.613V25H112.099ZM135.035 25.34C133.471 25.34 131.952 25.1587 130.479 24.796C129.028 24.4333 127.725 23.7987 126.569 22.892C125.413 21.9853 124.495 20.7273 123.815 19.118C123.135 17.5087 122.795 15.4573 122.795 12.964C122.795 10.72 123.123 8.816 123.781 7.252C124.438 5.66533 125.333 4.38467 126.467 3.41C127.6 2.43533 128.903 1.72133 130.377 1.268C131.85 0.814665 133.403 0.587998 135.035 0.587998C136.191 0.587998 137.313 0.678665 138.401 0.859999C139.511 1.04133 140.316 1.24533 140.815 1.472L144.929 4.906L141.529 10.516L135.035 7.524C134.264 7.524 133.539 7.73933 132.859 8.17C132.201 8.578 131.657 9.19 131.227 10.006C130.819 10.7993 130.615 11.7853 130.615 12.964C130.615 14.46 130.841 15.616 131.295 16.432C131.771 17.2253 132.439 17.7693 133.301 18.064C134.185 18.3587 135.227 18.506 136.429 18.506C137.585 18.506 138.673 18.3927 139.693 18.166C140.735 17.9167 141.653 17.6333 142.447 17.316C143.24 16.9987 143.841 16.7267 144.249 16.5V23.3C143.795 23.5267 143.149 23.81 142.311 24.15C141.495 24.4673 140.475 24.7507 139.251 25C138.049 25.2267 136.644 25.34 135.035 25.34ZM146.283 25L147.915 19.254V14.936L150.431 13.916L155.191 0.961999H165.425L171.239 16.194L173.857 21.022V25H166.479L164.779 19.934H155.565L154.103 25H146.283ZM157.809 13.984H162.909L160.665 7.218H159.951L157.809 13.984ZM176.919 25L176.239 22.96L176.919 19.56V0.928H184.399V13.882L184.059 18.54H184.739L190.825 18.2L193.239 17.86L196.231 22.824L194.565 25H176.919Z" fill="#BA2EBD"/>
</svg>
