<svg width="17" height="19" viewBox="0 0 17 19" fill="none" xmlns="http://www.w3.org/2000/svg">
<path d="M1.6332 15L1.2332 12.48C0.85987 12.0133 0.566536 11.4133 0.353203 10.68C0.13987 9.94667 0.0332031 9.03333 0.0332031 7.94C0.0332031 6.75333 0.17987 5.74 0.473203 4.9C0.77987 4.06 1.1932 3.36667 1.7132 2.82C2.2332 2.27333 2.81987 1.84 3.4732 1.52C4.12654 1.2 4.80654 0.98 5.5132 0.86C6.2332 0.726666 6.9332 0.66 7.6132 0.66C8.46654 0.66 9.2932 0.766666 10.0932 0.979999C10.9065 1.19333 11.6399 1.56667 12.2932 2.1C12.9465 2.63333 13.4665 3.37333 13.8532 4.32C14.2399 5.26667 14.4332 6.47333 14.4332 7.94C14.4332 8.7 14.3865 9.34667 14.2932 9.88C14.2132 10.4 14.0799 10.8533 13.8932 11.24C13.7199 11.6133 13.4932 11.9667 13.2132 12.3C12.9999 12.5533 12.7265 12.8267 12.3932 13.12C12.0599 13.4 11.7399 13.6 11.4332 13.72L11.4732 13.82L13.0332 14.02L16.5732 15.44L14.7732 18.68C14.7732 18.68 14.6332 18.6133 14.3532 18.48C14.0732 18.36 13.7065 18.1933 13.2532 17.98C12.8132 17.78 12.3265 17.56 11.7932 17.32C11.2732 17.08 10.7599 16.84 10.2532 16.6C9.75987 16.3733 9.31987 16.1667 8.9332 15.98C8.55987 15.8067 8.2932 15.6867 8.1332 15.62C7.66654 15.3933 7.2332 15.2333 6.8332 15.14C6.4332 15.0467 5.90654 15 5.2532 15H1.6332ZM5.6132 11.22H7.3932C8.32654 11.22 8.95987 10.9267 9.2932 10.34C9.63987 9.75333 9.8132 8.95333 9.8132 7.94C9.8132 6.9 9.62654 6.09333 9.2532 5.52C8.87987 4.94667 8.26654 4.66 7.4132 4.66C6.43987 4.66 5.7332 4.91333 5.2932 5.42C4.8532 5.91333 4.6332 6.75333 4.6332 7.94C4.6332 8.56667 4.6932 9.11333 4.8132 9.58C4.94654 10.0467 5.0932 10.42 5.2532 10.7C5.4132 10.9667 5.5332 11.14 5.6132 11.22Z" fill="#BA2EBD"/>
</svg>
